<svg width="64" height="30" viewBox="0 0 64 30" fill="none" xmlns="http://www.w3.org/2000/svg">
<path d="M4.80496 6H1.08496V22.9737C1.23996 23.4474 1.54996 23.6842 2.09246 23.6842C2.55746 23.6842 2.94496 23.4474 3.09996 22.9737V16.1842H4.64996C5.73496 16.1842 6.66496 15.7895 7.36246 14.9211C8.05996 14.1316 8.36996 13.0263 8.36996 11.7632V10.4211C8.36996 7.5 7.20746 6 4.80496 6ZM4.64996 14.3684H3.09996V7.81579H4.88246C5.88996 7.81579 6.43246 8.68421 6.43246 10.4211V11.7632C6.43246 13.5789 5.81246 14.3684 4.64996 14.3684Z" fill="#005691"/>
<path d="M44.7946 13.6578C44.2521 12.3946 43.2446 11.6841 41.6946 11.6841C40.1446 11.6841 39.1371 12.3157 38.5171 13.6578C38.1296 14.5262 37.9746 15.8683 37.9746 17.763C37.9746 19.5788 38.1296 20.9999 38.5171 21.8683C39.0596 23.2104 39.9896 23.9209 41.4621 23.9209C43.0121 23.9209 44.0971 23.2893 44.6396 21.9472C45.0271 21.1578 45.1821 19.7367 45.1821 17.763C45.1821 15.8683 45.0271 14.4472 44.7946 13.6578ZM40.0671 14.9999C40.2996 14.0525 40.7646 13.5788 41.6946 13.5788C42.4696 13.5788 42.9346 14.0525 43.1671 15.0788C43.2446 15.4736 43.3221 16.342 43.3221 17.763C43.3221 19.1841 43.2446 20.0525 43.1671 20.5262C42.9346 21.5525 42.4696 22.1051 41.6171 22.1051C40.5321 22.1051 39.9121 20.6841 39.9121 17.842C39.9896 16.4209 39.9896 15.4736 40.0671 14.9999Z" fill="#005691"/>
<path d="M11.4695 11.6841C10.462 11.6841 10.307 12.2367 10.307 12.5525C10.307 12.8683 10.462 13.1841 10.772 13.4209C10.927 13.4999 11.1595 13.5788 11.547 13.5788H11.6245C12.632 13.5788 14.492 14.4472 14.492 16.1841V16.8157C13.717 16.4209 12.942 16.1841 12.167 16.1841C10.152 16.1841 9.14453 17.6051 9.14453 20.4472V20.5262C9.14453 21.5525 9.37703 22.342 9.91953 22.8946C10.462 23.4472 11.082 23.763 11.857 23.763C12.8645 23.763 13.717 23.3683 14.492 22.4999V23.0525C14.7245 23.4472 15.0345 23.6841 15.4995 23.6841C15.9645 23.6841 16.2745 23.4472 16.507 22.9736V16.1051C16.507 13.1841 13.9495 11.6841 11.4695 11.6841ZM11.1595 20.3683C11.1595 17.9209 12.167 17.9209 12.477 17.9209C12.942 17.9209 13.6395 18.1578 14.492 18.6315V20.4472C14.027 21.3946 13.252 21.7893 12.322 21.7893C11.547 21.7893 11.1595 21.4736 11.1595 20.763V20.3683Z" fill="#005691"/>
<path d="M32.3948 11.6841C30.8448 11.6841 29.8373 12.3157 29.2173 13.6578C28.8298 14.5262 28.6748 15.9472 28.6748 17.763C28.6748 19.5788 28.8298 20.9209 29.2173 21.8683C29.7598 23.2104 30.7673 23.9209 32.1623 23.9209C33.7123 23.9209 34.7973 23.2893 35.3398 21.9472C35.7273 21.0788 35.8823 19.6578 35.8823 17.842C35.8823 16.0262 35.7273 14.6051 35.4173 13.7367C34.8748 12.3946 33.8673 11.6841 32.3948 11.6841ZM30.7673 14.9999C30.9998 14.0525 31.4648 13.5788 32.3173 13.5788C33.0923 13.5788 33.6348 14.0525 33.7898 15.0788C33.8673 15.4736 33.8673 16.342 33.8673 17.763C33.8673 19.1841 33.8673 20.0525 33.7898 20.5262C33.5573 21.5525 33.0148 22.1051 32.2398 22.1051C31.1548 22.1051 30.6123 20.6841 30.6123 17.842C30.6123 15.9472 30.6898 15.2367 30.7673 14.9999Z" fill="#005691"/>
<path d="M25.0329 12.1577C24.5679 12.2367 24.2579 12.4735 24.1029 12.8682V21.2367C23.0954 21.7893 22.4754 21.8682 22.1654 21.8682C21.8554 21.8682 21.0804 21.8682 21.0804 19.4998V12.8682C20.8479 12.3946 20.5379 12.1577 20.0729 12.1577C19.6079 12.2367 19.2979 12.3946 19.0654 12.8682V19.4998C19.0654 22.263 19.9954 23.684 21.8554 23.684C22.4754 23.684 23.2504 23.4472 24.1029 23.0525V25.7367C24.1029 26.5261 23.9479 26.9998 23.7154 27.3156C23.4054 27.7103 23.2504 27.9472 23.2504 28.184C23.2504 28.6577 23.4829 28.9735 23.9479 29.2103C24.5679 29.2103 25.1104 28.8156 25.4979 28.1051C25.8854 27.5525 26.0404 26.8419 26.0404 26.1314V12.8682C25.8854 12.3946 25.4979 12.1577 25.0329 12.1577Z" fill="#005691"/>
<path d="M53.4752 11.3682C53.6302 11.9998 54.4827 12.3945 55.4902 12.2366C56.4977 12.0788 57.1177 11.5261 56.9627 10.8945C56.8077 10.263 55.8777 9.86823 54.9477 10.0261C54.0177 10.1051 53.3202 10.7366 53.4752 11.3682ZM59.6752 11.3682C60.3727 11.2893 60.9152 10.8156 60.7602 10.3419C60.6052 9.86823 59.9852 9.55244 59.2102 9.71033C58.5127 9.78928 57.9702 10.263 58.1252 10.7366C58.2802 11.2103 58.9002 11.4472 59.6752 11.3682ZM39.2152 2.44717C39.9902 2.36823 40.4552 1.89454 40.3777 1.42086C40.3002 0.947175 39.6027 0.631385 38.8277 0.710332C38.0527 0.78928 37.5877 1.26296 37.6652 1.73665C37.8202 2.28928 38.5177 2.52612 39.2152 2.44717ZM51.3052 15.0788C50.2977 14.6051 48.9027 14.8419 48.2052 15.4735C47.5077 16.184 47.6627 17.0524 48.6702 17.4472C49.6777 17.8419 51.0727 17.684 51.7702 17.0524C52.5452 16.4209 52.3127 15.5524 51.3052 15.0788ZM52.3127 11.5261C52.1577 10.7366 50.9952 10.263 49.7552 10.4209C48.5152 10.5788 47.6627 11.3682 47.8952 12.1577C48.0502 12.9472 49.2127 13.4209 50.4527 13.263C51.6927 13.0261 52.4677 12.2366 52.3127 11.5261ZM51.3052 4.18402C51.9252 4.42086 52.7777 4.34191 53.2427 3.94717C53.7077 3.55244 53.5527 2.99981 52.9327 2.76296C52.3127 2.52612 51.4602 2.60507 51.0727 2.99981C50.6077 3.39454 50.7627 3.94718 51.3052 4.18402ZM48.5152 6.71033C49.2902 7.02612 50.4527 6.94718 50.9952 6.39454C51.6152 5.84191 51.4602 5.13139 50.6077 4.8156C49.8327 4.49981 48.6702 4.57875 48.1277 5.13139C47.5852 5.68402 47.7402 6.39454 48.5152 6.71033ZM28.2877 5.05244C27.6677 4.8156 26.8152 4.89454 26.4277 5.28928C25.9627 5.68402 26.1177 6.23665 26.6602 6.47349C27.2802 6.71033 28.1327 6.63139 28.5202 6.23665C28.9852 5.92086 28.8302 5.36823 28.2877 5.05244ZM42.7027 7.26296C42.5477 6.47349 41.3852 5.99981 40.1452 6.1577C38.9052 6.3156 38.0527 7.10507 38.2852 7.89454C38.4402 8.68402 39.6027 9.1577 40.8427 8.99981C42.0052 8.84191 42.8577 8.05244 42.7027 7.26296ZM47.8177 7.34191C46.8102 6.86823 45.4152 7.10507 44.7177 7.73665C44.0202 8.36823 44.1752 9.3156 45.1827 9.71033C46.1902 10.184 47.5852 9.94718 48.2827 9.3156C49.0577 8.68402 48.8252 7.8156 47.8177 7.34191ZM58.4352 18.8682C57.8152 18.6314 56.9627 18.7103 56.5752 19.1051C56.1102 19.4998 56.2652 20.0524 56.8852 20.2893C57.5052 20.5261 58.3577 20.4472 58.7452 20.0524C59.1327 19.7366 58.9777 19.184 58.4352 18.8682ZM55.2577 17.2103C54.4827 16.8156 53.3202 16.9735 52.7777 17.5261C52.1577 18.0788 52.3902 18.7893 53.1652 19.1051C53.9402 19.4209 55.1027 19.3419 55.6452 18.7893C56.1877 18.2366 56.0327 17.5261 55.2577 17.2103ZM32.0077 6.3156C31.2327 5.99981 30.0702 6.07875 29.4502 6.63139C28.9077 7.18402 29.0627 7.89454 29.8377 8.21033C30.6902 8.52612 31.7752 8.44718 32.3177 7.89454C32.9377 7.42086 32.7827 6.71033 32.0077 6.3156ZM39.9902 5.44718C40.9977 5.28928 41.6177 4.73665 41.4627 4.10507C41.3077 3.47349 40.3777 3.07875 39.4477 3.23665C38.4402 3.39454 37.8202 3.94718 37.9752 4.57875C38.0527 5.13139 38.9827 5.52612 39.9902 5.44718ZM33.7902 10.3419C34.7977 10.7366 36.1927 10.5788 36.8902 9.94718C37.5877 9.3156 37.4327 8.36823 36.4252 7.97349C35.4177 7.57875 34.0227 7.73665 33.3252 8.36823C32.5502 8.99981 32.7827 9.94718 33.7902 10.3419Z" fill="#27AAE1"/>
<path d="M59.5972 1.73682C58.8222 1.73682 58.2021 2.3684 58.2021 3.15787C58.2021 3.94734 58.8222 4.57892 59.5972 4.57892C60.3722 4.57892 60.9921 3.94734 60.9921 3.15787C60.9146 2.28945 60.2947 1.73682 59.5972 1.73682ZM59.5972 4.18419C58.9772 4.18419 58.5121 3.7105 58.5121 3.07892C58.5121 2.44734 58.9772 1.97366 59.5972 1.97366C60.2172 1.97366 60.6822 2.44734 60.6822 3.07892C60.6822 3.7105 60.1397 4.18419 59.5972 4.18419Z" fill="#005691"/>
<path d="M59.9075 3.07884C60.0625 2.9999 60.2175 2.92095 60.2175 2.76306C60.2175 2.68411 60.14 2.60516 60.0625 2.52621C59.9075 2.44727 59.7525 2.44727 59.52 2.44727C59.2875 2.44727 59.1325 2.44727 58.9775 2.44727V3.63148H59.365V3.15779H59.52C59.675 3.15779 59.7525 3.23674 59.83 3.31569C59.9075 3.47358 59.9075 3.55253 59.985 3.63148H60.3725C60.3725 3.55253 60.295 3.39463 60.2175 3.31569C60.14 3.23674 60.0625 3.07884 59.9075 3.07884ZM59.52 2.9999H59.365V2.68411C59.365 2.68411 59.4425 2.68411 59.52 2.68411C59.675 2.68411 59.83 2.76306 59.83 2.842C59.83 2.92095 59.7525 2.9999 59.52 2.9999Z" fill="#005691"/>
</svg>
