<svg width="60" height="18" viewBox="0 0 60 18" fill="none" xmlns="http://www.w3.org/2000/svg">
<g clip-path="url(#clip0_10_1329)">
<path d="M13.0911 5.86284L11.356 7.57713L11.2693 7.66284L10.7184 8.20713L10.3106 8.61427L9.75972 9.15856L9.67297 9.23998L9.43439 9.47998L9.34763 9.56141L8.53647 10.3628L8.44972 10.4443C8.21265 10.6781 7.94407 10.8786 7.65157 11.04C7.51196 11.1171 7.367 11.1844 7.21779 11.2414C6.8818 11.3701 6.52771 11.4467 6.16805 11.4686C5.95015 11.4878 5.73095 11.4878 5.51305 11.4686C5.03726 11.4175 4.57688 11.2717 4.15967 11.04C3.97074 10.9434 3.79569 10.8223 3.63913 10.68L3.53936 10.5814L0.377132 7.42713L0.312065 7.36284C0.255742 7.30266 0.206284 7.23655 0.164581 7.1657C0.0560742 6.98396 -0.000866553 6.7767 -0.000253908 6.5657C-0.00251953 6.53288 -0.00251953 6.49995 -0.000253908 6.46713C-0.000253908 6.4157 -0.000253908 6.36427 -0.000253908 6.31713V6.26141C0.0421458 6.1056 0.115912 5.95984 0.216634 5.83284C0.243251 5.79942 0.272242 5.76791 0.30339 5.73856L0.359781 5.68284L3.76493 2.36141L5.80368 0.351412C6.02061 0.136726 6.31202 0.0115292 6.61889 0.00118436C6.92576 -0.00916048 7.22513 0.0961196 7.45637 0.295698L13.0911 5.86284Z" fill="#005BAA"/>
<path d="M6.96242 13.3373C6.68805 13.3363 6.41718 13.2763 6.16861 13.1616L5.52228 12.5273L5.36179 12.373L5.33576 12.343L5.03645 12.0473L3.53125 10.543L3.63102 10.6416C3.78865 10.7857 3.96519 10.9082 4.15589 11.0058C4.5731 11.2375 5.03348 11.3833 5.50927 11.4344C5.72717 11.4537 5.94638 11.4537 6.16427 11.4344C6.52393 11.4125 6.87802 11.3359 7.21401 11.2073C7.36323 11.1503 7.50818 11.083 7.64779 11.0058C7.94029 10.8445 8.20887 10.644 8.44594 10.4101L8.5327 10.3287L9.34386 9.52728L9.43061 9.44585L9.66919 9.20585L9.75595 9.12442L10.3068 8.58014L10.7146 8.17299L11.2785 7.65871L11.3653 7.57299L14.8572 4.14442L16.2886 2.57156L16.3667 2.49871C16.5781 2.29065 16.8643 2.17383 17.1627 2.17383C17.4611 2.17383 17.7473 2.29065 17.9587 2.49871L18.7481 3.27871H18.7742C18.597 3.2714 18.4202 3.29995 18.2546 3.36259C18.089 3.42524 17.9381 3.52065 17.8112 3.64299L15.1435 6.21442L15.1174 6.24442L10.4847 10.8044L8.77127 12.463L8.66717 12.5701C8.43398 12.7938 8.16597 12.979 7.87335 13.1187C7.71064 13.1967 7.53868 13.2543 7.3615 13.2901C7.26005 13.3111 7.15706 13.324 7.05352 13.3287L6.96242 13.3373Z" fill="#ED1C24"/>
<path d="M23.0249 9.07268L22.9382 9.1584L19.16 12.947L15.1822 16.9284C15.0586 17.0517 14.9252 17.1649 14.7832 17.267L14.7268 17.3055C14.0353 17.7937 13.1932 18.0287 12.3454 17.97C11.4976 17.9113 10.6969 17.5627 10.081 16.9841L9.97691 16.9241L9.29588 16.2513L7.37425 14.3527L6.73226 13.7141L6.64551 13.6241C6.74872 13.6412 6.85318 13.6498 6.95783 13.6498H7.04892C7.17154 13.6447 7.29347 13.6289 7.41329 13.6027C7.61647 13.5629 7.81339 13.4966 7.99889 13.4055C8.31853 13.2488 8.61128 13.0434 8.86645 12.797L8.98356 12.6727L10.4584 11.2413L15.5293 6.31268L15.5553 6.2784L18.0452 3.89554C18.2069 3.74236 18.4167 3.64825 18.6399 3.62878C18.8631 3.6093 19.0863 3.6656 19.2727 3.7884L19.854 4.36697L23.0206 7.49983C23.0488 7.52633 23.075 7.55499 23.0987 7.58554C23.2751 7.79838 23.3652 8.06837 23.3516 8.34314C23.338 8.61792 23.2216 8.8779 23.0249 9.07268Z" fill="#ED1C24"/>
<path d="M10.7836 4.92441C10.7387 4.96537 10.6798 4.98812 10.6187 4.98812C10.5576 4.98812 10.4988 4.96537 10.4539 4.92441C10.0976 4.57012 9.67413 4.28864 9.20771 4.09604C8.74129 3.90344 8.24105 3.80349 7.73554 3.8019C6.71461 3.79869 5.7342 4.1963 5.00999 4.90727C4.28579 5.61824 3.8771 6.58432 3.87385 7.593C3.8706 8.60168 4.27304 9.57032 4.99264 10.2858L6.16384 11.4516C6.16509 11.4601 6.16509 11.4687 6.16384 11.4773C5.95174 11.4966 5.73829 11.4966 5.52619 11.4773L4.65863 10.6201C3.85332 9.81879 3.40319 8.73421 3.40725 7.60497C3.41132 6.47574 3.86926 5.39435 4.68032 4.5987C5.49139 3.80305 6.58915 3.35831 7.7321 3.36233C8.87505 3.36635 9.96957 3.81879 10.7749 4.62012C10.8142 4.66079 10.8368 4.71441 10.8384 4.77062C10.8401 4.82683 10.8205 4.88163 10.7836 4.92441Z" fill="#009EDB"/>
<path d="M12.5792 6.38126L12.2538 6.6984L11.6856 6.13269C11.6642 6.11159 11.6473 6.08654 11.6357 6.05896C11.6241 6.03138 11.6182 6.00182 11.6182 5.97197C11.6182 5.94212 11.6241 5.91256 11.6357 5.88498C11.6473 5.85741 11.6642 5.83235 11.6856 5.81126C11.707 5.79014 11.7323 5.77338 11.7602 5.76195C11.7881 5.75051 11.8181 5.74463 11.8483 5.74463C11.8785 5.74463 11.9084 5.75051 11.9363 5.76195C11.9642 5.77338 11.9896 5.79014 12.0109 5.81126L12.5792 6.38126Z" fill="#009EDB"/>
<path d="M7.6687 11.0314C7.52926 11.1077 7.38427 11.1736 7.23492 11.2285L5.63863 9.6514C5.15461 9.16971 4.85595 8.53621 4.79418 7.8602C4.73241 7.1842 4.9114 6.50809 5.30028 5.94854C5.33534 5.89921 5.3885 5.86534 5.44844 5.85413C5.50839 5.84293 5.5704 5.85527 5.62127 5.88854C5.64611 5.90566 5.66728 5.92746 5.68357 5.95269C5.69986 5.97791 5.71094 6.00607 5.71618 6.03554C5.72142 6.06501 5.72071 6.09521 5.7141 6.12441C5.70749 6.15361 5.69511 6.18123 5.67767 6.20569C5.34986 6.67796 5.19909 7.24844 5.25135 7.81877C5.30362 8.38909 5.55563 8.92354 5.96396 9.32997L7.6687 11.0314Z" fill="#009EDB"/>
<path d="M11.6081 7.32851L11.3696 7.56422L11.2915 7.64137L9.49999 5.85422C9.17215 5.52888 8.75871 5.30066 8.30642 5.19538C7.85414 5.0901 7.38106 5.11197 6.9407 5.25851C6.91129 5.27196 6.87933 5.27911 6.84692 5.27949C6.81452 5.27988 6.78239 5.27349 6.75266 5.26074C6.72293 5.248 6.69626 5.22919 6.6744 5.20554C6.65254 5.1819 6.636 5.15396 6.62584 5.12355C6.61568 5.09314 6.61215 5.06095 6.61547 5.0291C6.61879 4.99725 6.62889 4.96645 6.6451 4.93872C6.66132 4.911 6.68328 4.88697 6.70956 4.86822C6.73583 4.84948 6.76582 4.83643 6.79756 4.82994C7.31681 4.66174 7.87326 4.64002 8.40432 4.76722C8.93538 4.89442 9.41998 5.16549 9.80363 5.54994L11.6081 7.32851Z" fill="#009EDB"/>
<path d="M10.6488 8.27994L10.3235 8.60136L8.52328 6.80994C8.30642 6.63432 8.03113 6.5448 7.7511 6.55885C7.47107 6.57291 7.20637 6.68952 7.00864 6.88594C6.81092 7.08237 6.69434 7.34452 6.68165 7.62126C6.66895 7.89801 6.76106 8.1695 6.93999 8.38279L8.09818 9.53565C8.14132 9.57827 8.16555 9.63608 8.16555 9.69636C8.16555 9.75664 8.14132 9.81445 8.09818 9.85708C8.05503 9.8997 7.99652 9.92365 7.93551 9.92365C7.8745 9.92365 7.81598 9.8997 7.77284 9.85708L6.59297 8.70422C6.31766 8.40406 6.17018 8.01052 6.18124 7.6056C6.19231 7.20067 6.36108 6.81557 6.65238 6.53053C6.94368 6.24548 7.33507 6.08246 7.745 6.07543C8.15493 6.0684 8.55181 6.2179 8.85295 6.49279L10.6488 8.27994Z" fill="#009EDB"/>
<path d="M9.68605 9.22714L9.44747 9.46714L9.36939 9.54L7.56054 7.75714C7.5174 7.71452 7.49316 7.6567 7.49316 7.59643C7.49316 7.53615 7.5174 7.47833 7.56054 7.43571C7.60368 7.39309 7.6622 7.36914 7.72321 7.36914C7.78422 7.36914 7.84273 7.39309 7.88588 7.43571L9.68605 9.22714Z" fill="#009EDB"/>
<path fill-rule="evenodd" clip-rule="evenodd" d="M54.9512 9.12878L52.2705 5.33163L52.0015 5.08735H54.6562L56.4477 7.95449L56.5909 7.83878L57.671 6.24878C57.8063 6.07507 57.8668 5.85559 57.8392 5.63807C57.8116 5.42056 57.6981 5.22263 57.5235 5.08735H60.0177L57.1331 9.12449V12.0559L57.6406 12.6559H54.5261L54.9599 12.0645C54.9599 11.0916 54.9252 10.1016 54.9599 9.12878H54.9512ZM47.6768 5.08735C47.8487 5.26325 47.9556 5.4912 47.9804 5.73449C47.9975 5.87975 47.9781 6.02694 47.924 6.16306L45.933 11.8716C45.8013 12.1584 45.6073 12.4131 45.3647 12.6173H47.5336C47.3744 12.4883 47.2667 12.3076 47.23 12.1073C47.1908 11.9671 47.1908 11.819 47.23 11.6788L47.6638 10.3245H50.1927L50.5874 11.3702C50.6272 11.4749 50.6521 11.5845 50.6612 11.6959C50.6869 11.8738 50.6629 12.0553 50.5918 12.2207C50.5207 12.3862 50.4052 12.5292 50.2578 12.6345H53.6629C53.3272 12.3676 53.051 12.0349 52.8517 11.6573L50.3619 5.06592L47.6768 5.08735ZM49.8457 9.37306H48.0368L48.9044 6.90449L49.837 9.37306H49.8457ZM40.7754 5.09163H44.5709C45.1216 5.09276 45.6495 5.30941 46.0389 5.69415C46.4283 6.07889 46.6476 6.60039 46.6487 7.14449V7.39735C46.6419 7.93625 46.4213 8.45099 46.0344 8.83087C45.6475 9.21076 45.1251 9.42545 44.5796 9.42878L43.6296 9.45878C43.9854 9.26701 44.2716 8.97016 44.4482 8.60975C44.6247 8.24935 44.6828 7.84342 44.6143 7.44877C44.5406 6.81449 44.2109 6.20592 43.66 6.19306H43.313V11.8116C43.3114 11.9019 43.3387 11.9904 43.3911 12.0645C43.4951 12.2256 43.6111 12.3789 43.7381 12.5231L43.8379 12.6431H40.8882L41.014 12.4759C41.1064 12.3556 41.1836 12.2247 41.2439 12.0859C41.282 12.0055 41.3012 11.9176 41.3003 11.8288V5.78163C41.2872 5.46449 40.9706 5.28449 40.7754 5.09163Z" fill="#005BAA"/>
<path fill-rule="evenodd" clip-rule="evenodd" d="M24.79 5.05273H27.1715L29.1712 10.7142L30.8673 6.02559C30.8982 5.88889 30.8732 5.74565 30.7978 5.62702C30.7068 5.43416 30.607 5.24988 30.5116 5.06131H32.29C32.1859 5.44273 32.0298 5.86273 31.8953 6.24845L29.5963 12.857C28.9061 12.7479 28.2602 12.4511 27.731 11.9999C27.3756 11.622 27.1181 11.1647 26.9806 10.667L25.059 5.61416C24.9826 5.4211 24.8927 5.2335 24.79 5.05273ZM34.2984 7.71416V11.7599C34.2984 11.9227 34.3375 11.9527 34.4416 12.0856L34.9101 12.6899H32.6674L33.0448 12.1199C33.1374 12.0091 33.1866 11.8692 33.1836 11.7256V6.06416L32.5546 5.05273H34.8797L38.6405 9.85702V6.04273C38.6446 5.89837 38.597 5.75722 38.5061 5.64416C38.3803 5.45131 38.2458 5.26702 38.12 5.07845H40.3409L39.9072 5.66559C39.8031 5.79416 39.764 5.82416 39.764 5.99131V12.857C39.3097 12.8338 38.8657 12.7142 38.4623 12.5064C38.0589 12.2986 37.7054 12.0074 37.426 11.6527L34.2984 7.71416Z" fill="#ED1C24"/>
<path d="M27.1721 15.2401C27.1721 15.5401 27.3022 15.6987 27.6362 15.6987C27.7666 15.6987 27.8959 15.6754 28.0179 15.6301C28.0786 15.6044 28.096 15.6301 28.096 15.6858V15.7201C28.096 15.7715 28.096 15.7929 28.0179 15.8229C27.8978 15.8695 27.7694 15.8913 27.6405 15.8872C27.1807 15.8872 26.9638 15.6858 26.9638 15.2401V14.8115C26.951 14.7211 26.9595 14.629 26.9886 14.5424C27.0178 14.4558 27.0669 14.377 27.132 14.3123C27.1971 14.2475 27.2765 14.1985 27.364 14.1692C27.4515 14.1398 27.5446 14.1308 27.6362 14.1429C27.7623 14.1437 27.8872 14.167 28.0049 14.2115C28.0656 14.2329 28.0787 14.2587 28.0787 14.3101V14.3444C28.0787 14.4087 28.0526 14.4258 27.9962 14.4044C27.8798 14.3551 27.7542 14.3303 27.6275 14.3315C27.3065 14.3315 27.1937 14.4858 27.1937 14.8201L27.1721 15.2401Z" fill="#009EDB"/>
<path d="M27.6401 15.8916C27.1759 15.8916 26.959 15.6816 26.959 15.2402V14.8116C26.946 14.7208 26.9545 14.6283 26.9839 14.5413C27.0133 14.4543 27.0628 14.3753 27.1285 14.3104C27.1941 14.2456 27.2741 14.1967 27.3621 14.1677C27.4502 14.1386 27.5438 14.1302 27.6357 14.1431C27.7618 14.1439 27.8867 14.1671 28.0044 14.2116C28.0695 14.2373 28.0825 14.2631 28.0825 14.3145V14.3488C28.0825 14.3831 28.0825 14.4045 28.0825 14.4131C28.0825 14.4216 28.0478 14.4131 28.0175 14.4131C27.9001 14.3674 27.7749 14.3441 27.6488 14.3445C27.3364 14.3445 27.215 14.4945 27.215 14.8288V15.2573C27.215 15.5702 27.3538 15.7116 27.6748 15.7116C27.8039 15.7133 27.9321 15.69 28.0522 15.6431C28.0869 15.6431 28.1042 15.6431 28.1172 15.6431C28.1302 15.6431 28.1172 15.6731 28.1172 15.7073V15.7416C28.1172 15.7973 28.1172 15.8188 28.0392 15.8445C27.9117 15.8908 27.775 15.907 27.6401 15.8916ZM27.6401 14.1473C27.5479 14.1341 27.4539 14.1425 27.3656 14.1718C27.2773 14.201 27.1972 14.2504 27.1318 14.3159C27.0664 14.3814 27.0174 14.4611 26.9889 14.5487C26.9604 14.6363 26.9532 14.7293 26.9677 14.8202V15.2488C26.9677 15.6773 27.1846 15.8916 27.6444 15.8916C27.7721 15.8988 27.8998 15.8768 28.0175 15.8273C28.0825 15.8016 28.0955 15.7802 28.0955 15.7288V15.6859C28.0955 15.6516 28.0955 15.6345 28.0955 15.6259C28.0955 15.6173 28.0695 15.6259 28.0392 15.6259C27.9176 15.6729 27.788 15.6962 27.6574 15.6945C27.3364 15.6945 27.1889 15.5531 27.1889 15.2359V14.8073C27.1889 14.4688 27.3321 14.3188 27.6488 14.3188C27.7765 14.3167 27.9034 14.34 28.0218 14.3873C28.0478 14.3873 28.0652 14.3873 28.0782 14.3873C28.0825 14.3779 28.0847 14.3677 28.0847 14.3573C28.0847 14.347 28.0825 14.3368 28.0782 14.3273V14.2931C28.0782 14.2459 28.0782 14.2202 28.0001 14.1945C27.8829 14.1554 27.7594 14.1379 27.6357 14.1431L27.6401 14.1473Z" fill="#009EDB"/>
<path d="M28.3779 14.1428C28.3779 14.07 28.3779 14.0571 28.4603 14.0571H28.4907C28.5601 14.0571 28.5731 14.0571 28.5731 14.1428V14.7471C28.6234 14.6828 28.69 14.6327 28.7662 14.6018C28.8423 14.571 28.9254 14.5605 29.0069 14.5714C29.3149 14.5714 29.4971 14.7 29.4971 15V15.7714C29.4971 15.84 29.4971 15.8528 29.4147 15.8528H29.38C29.3106 15.8528 29.2975 15.8528 29.2975 15.7714V15.03C29.2975 14.8243 29.2064 14.7343 28.9592 14.7343C28.7119 14.7343 28.5948 14.8328 28.5948 15.0728V15.78C28.5948 15.8486 28.5948 15.8614 28.5124 15.8614H28.482C28.417 15.8614 28.3996 15.8614 28.3996 15.78L28.3779 14.1428Z" fill="#009EDB"/>
<path d="M29.3923 15.857H29.3576C29.2882 15.857 29.2752 15.857 29.2752 15.7713V15.0299C29.2752 14.8199 29.1754 14.7384 28.9368 14.7384C28.6983 14.7384 28.5768 14.837 28.5768 15.0727V15.7799C28.5768 15.8484 28.5768 15.8656 28.4901 15.8656H28.4597C28.3903 15.8656 28.3729 15.8656 28.3729 15.7799V14.1427C28.3729 14.0656 28.3729 14.0527 28.4597 14.0527H28.4901C28.5595 14.0527 28.5768 14.0527 28.5768 14.1427V14.7384C28.6276 14.6749 28.6944 14.6256 28.7705 14.5955C28.8466 14.5654 28.9294 14.5556 29.0106 14.567C29.3359 14.567 29.5008 14.7213 29.5008 15.0299V15.8013C29.4964 15.857 29.4661 15.857 29.3923 15.857ZM28.9368 14.7213C29.1798 14.7213 29.2795 14.8113 29.2795 15.0213V15.7713C29.2795 15.8399 29.2795 15.8484 29.3576 15.8484H29.3923C29.4617 15.8484 29.4747 15.8484 29.4747 15.7713V14.9999C29.4747 14.6956 29.3099 14.5456 28.9889 14.5456C28.9072 14.5307 28.8228 14.5394 28.7459 14.5706C28.669 14.6017 28.6028 14.654 28.5551 14.7213V14.1427C28.5551 14.0742 28.5551 14.0613 28.477 14.0613H28.4467C28.3816 14.0613 28.3643 14.0613 28.3643 14.1427V15.8013C28.3643 15.8699 28.3643 15.8784 28.4467 15.8784H28.477C28.5464 15.8784 28.5551 15.8784 28.5551 15.8013V15.0727C28.5681 14.8327 28.6809 14.7299 28.9368 14.7299V14.7213Z" fill="#009EDB"/>
<path d="M29.7568 15.3384V15.0984C29.7568 14.7341 29.952 14.5498 30.3381 14.5498C30.7242 14.5498 30.915 14.7384 30.915 15.0984V15.3384C30.915 15.7069 30.7242 15.8869 30.3381 15.8869C29.952 15.8869 29.7568 15.6984 29.7568 15.3384ZM30.7155 15.0984C30.7155 14.8455 30.6244 14.7341 30.3381 14.7341C30.0518 14.7341 29.9564 14.8455 29.9564 15.0984V15.3384C29.9564 15.5912 30.0518 15.7027 30.3381 15.7027C30.6244 15.7027 30.7155 15.5912 30.7155 15.3384V15.0984Z" fill="#009EDB"/>
<path d="M30.3387 15.8916C29.9396 15.8916 29.7574 15.7158 29.7574 15.3387V15.0987C29.75 15.0214 29.7589 14.9433 29.7835 14.8696C29.8081 14.7958 29.848 14.7279 29.9006 14.6701C30.0226 14.5721 30.1775 14.5231 30.3344 14.533C30.7291 14.533 30.9113 14.7087 30.9113 15.0858V15.3258C30.923 15.4028 30.9163 15.4814 30.8917 15.5553C30.8671 15.6293 30.8252 15.6965 30.7695 15.7515C30.7138 15.8065 30.6458 15.8479 30.571 15.8722C30.4962 15.8965 30.4166 15.9032 30.3387 15.8916ZM30.3387 14.5544C30.1822 14.5421 30.0269 14.5896 29.9049 14.6873C29.8514 14.7444 29.811 14.8123 29.7863 14.8862C29.7616 14.9601 29.7532 15.0384 29.7618 15.1158V15.3558C29.7618 15.7287 29.944 15.9001 30.3387 15.9001C30.4953 15.9139 30.6512 15.8661 30.7725 15.7673C30.826 15.7101 30.8664 15.6423 30.8911 15.5683C30.9158 15.4944 30.9242 15.4161 30.9156 15.3387V15.0987C30.9113 14.7258 30.7291 14.5716 30.3387 14.5716V14.5544ZM30.3387 15.7073C30.0611 15.7073 29.9526 15.6044 29.9526 15.3387V15.0987C29.9526 14.833 30.0567 14.7301 30.3387 14.7301C30.6207 14.7301 30.7204 14.833 30.7204 15.0987V15.3387C30.7204 15.6087 30.6163 15.7073 30.3387 15.7073ZM30.3387 14.7387C30.0611 14.7387 29.9613 14.833 29.9613 15.0987V15.3387C29.9613 15.6001 30.0654 15.6987 30.3387 15.6987C30.612 15.6987 30.7161 15.6044 30.7161 15.3387V15.0987C30.7161 14.833 30.612 14.7387 30.3387 14.7387Z" fill="#009EDB"/>
<path d="M31.874 15.0901C31.874 14.7473 32.0605 14.5501 32.464 14.5501C32.5421 14.5476 32.62 14.5593 32.6939 14.5844C32.7589 14.5844 32.7763 14.623 32.7763 14.683V14.7087C32.7763 14.773 32.7763 14.7944 32.6939 14.773C32.6218 14.7463 32.5453 14.7332 32.4683 14.7344C32.1733 14.7344 32.0736 14.8501 32.0736 15.0944V15.3473C32.0736 15.6087 32.1907 15.703 32.5073 15.703C32.5869 15.7058 32.6663 15.6942 32.7416 15.6687C32.8023 15.6473 32.8197 15.6687 32.8197 15.733V15.7587C32.8197 15.8144 32.8197 15.8358 32.7372 15.853C32.6574 15.8781 32.5738 15.8897 32.49 15.8873C32.0866 15.8873 31.8957 15.7158 31.8957 15.3473L31.874 15.0901Z" fill="#009EDB"/>
<path d="M32.4684 15.8913C32.3123 15.9004 32.1582 15.8532 32.0346 15.7585C31.9801 15.7019 31.9387 15.6342 31.9132 15.5602C31.8878 15.4862 31.8789 15.4076 31.8872 15.3299V15.0728C31.8824 14.9999 31.8931 14.9268 31.9185 14.8582C31.9439 14.7896 31.9834 14.7269 32.0346 14.6742C32.1542 14.5711 32.31 14.5188 32.4684 14.5285C32.5464 14.5278 32.624 14.5393 32.6983 14.5628C32.7677 14.5628 32.7807 14.6056 32.7807 14.6656V14.6913C32.7807 14.7299 32.7807 14.7513 32.7807 14.7599C32.7707 14.7652 32.7595 14.7679 32.7482 14.7679C32.7369 14.7679 32.7257 14.7652 32.7157 14.7599C32.6427 14.7371 32.5666 14.7256 32.4901 14.7256C32.2081 14.7256 32.0954 14.8285 32.0954 15.0813V15.3342C32.0954 15.5913 32.2081 15.6856 32.5291 15.6856C32.6087 15.6889 32.6882 15.6772 32.7634 15.6513C32.7937 15.6513 32.8111 15.6513 32.8241 15.6513C32.8371 15.6513 32.8458 15.6813 32.8458 15.7199V15.7456C32.8458 15.8056 32.8458 15.8271 32.759 15.8442C32.6658 15.8769 32.5674 15.8929 32.4684 15.8913ZM32.4684 14.5542C32.0823 14.5542 31.8828 14.7385 31.8828 15.0899V15.3471C31.8828 15.7156 32.0693 15.8828 32.4727 15.8828C32.5562 15.8846 32.6395 15.8745 32.72 15.8528C32.7851 15.8528 32.8024 15.8142 32.8024 15.7585V15.7328C32.8024 15.6985 32.8024 15.6771 32.8024 15.6685C32.8024 15.6599 32.7721 15.6685 32.746 15.6685C32.6687 15.6919 32.5883 15.7035 32.5075 15.7028C32.2081 15.7028 32.0737 15.5999 32.0737 15.3428V15.0899C32.0737 14.8328 32.1908 14.7256 32.4727 14.7256C32.5497 14.7248 32.6261 14.7379 32.6983 14.7642C32.7287 14.7642 32.746 14.7642 32.759 14.7642C32.7721 14.7642 32.759 14.7342 32.759 14.6999V14.6742C32.759 14.6185 32.759 14.5971 32.681 14.5756C32.6092 14.5639 32.5362 14.5624 32.4641 14.5713L32.4684 14.5542Z" fill="#009EDB"/>
<path d="M33.1837 15.3985C33.1837 15.6043 33.2704 15.7028 33.535 15.7028C33.7996 15.7028 33.8864 15.6085 33.8864 15.3985V14.6571C33.8864 14.5928 33.8864 14.5757 33.9732 14.5757H33.9992C34.0729 14.5757 34.0859 14.5757 34.0859 14.6571V15.3985C34.0859 15.7157 33.9254 15.8871 33.535 15.8871C33.1446 15.8871 32.9668 15.7243 32.9668 15.3985V14.6571C32.9668 14.5928 32.9668 14.5757 33.0536 14.5757H33.0796C33.1533 14.5757 33.1663 14.5757 33.1663 14.6571L33.1837 15.3985Z" fill="#009EDB"/>
<path d="M33.5353 15.8913C33.1709 15.8913 32.9844 15.7241 32.9844 15.3984V14.657C32.9844 14.5927 32.9844 14.5713 33.0668 14.5713H33.0972C33.1709 14.5713 33.1839 14.5713 33.1839 14.657V15.3984C33.1839 15.617 33.2837 15.6984 33.5353 15.6984C33.7869 15.6984 33.8823 15.617 33.8823 15.3984V14.657C33.8823 14.5927 33.8823 14.5713 33.9734 14.5713H33.9994C34.0775 14.5713 34.0862 14.5713 34.0862 14.657V15.3984C34.0923 15.4645 34.0843 15.5311 34.0626 15.5938C34.0409 15.6566 34.0061 15.7142 33.9604 15.7627C33.8404 15.8575 33.6884 15.9035 33.5353 15.8913ZM33.0668 14.5713C33.0061 14.5713 32.9887 14.5713 32.9887 14.6484V15.3899C32.9828 15.4566 32.9918 15.5238 33.0151 15.5867C33.0383 15.6497 33.0752 15.7068 33.1232 15.7541C33.2464 15.8484 33.4021 15.8915 33.557 15.8741C33.634 15.8826 33.7119 15.876 33.7864 15.8546C33.8608 15.8333 33.9302 15.7977 33.9907 15.7499C34.0366 15.7023 34.0715 15.6455 34.0933 15.5834C34.115 15.5213 34.1229 15.4553 34.1165 15.3899V14.657C34.1165 14.597 34.1165 14.5799 34.0341 14.5799H34.0081C33.943 14.5799 33.9257 14.5799 33.9257 14.657V15.3984C33.9257 15.6213 33.8259 15.707 33.57 15.707C33.314 15.707 33.2143 15.6213 33.2143 15.3984V14.657C33.2143 14.597 33.2143 14.5799 33.1319 14.5799L33.0668 14.5713Z" fill="#009EDB"/>
<path d="M34.3506 15.3386V15.0986C34.3506 14.7343 34.5414 14.55 34.9318 14.55C35.3222 14.55 35.5044 14.7386 35.5044 15.0986V15.3386C35.5044 15.7072 35.3136 15.8872 34.9318 15.8872C34.5501 15.8872 34.3506 15.6986 34.3506 15.3386ZM35.3092 15.0986C35.3092 14.8458 35.2181 14.7343 34.9318 14.7343C34.6456 14.7343 34.5458 14.8458 34.5458 15.0986V15.3386C34.5458 15.5915 34.6456 15.7029 34.9318 15.7029C35.2181 15.7029 35.3092 15.5915 35.3092 15.3386V15.0986ZM34.7453 14.2072C34.806 14.1129 34.8451 14.0786 34.9318 14.0786C35.0186 14.0786 35.0533 14.1043 35.1184 14.2072L35.2181 14.3615C35.2485 14.4086 35.2181 14.4215 35.1834 14.4215C35.1612 14.4251 35.1383 14.4211 35.1186 14.4102C35.0989 14.3993 35.0835 14.3821 35.075 14.3615L35.0143 14.2586C34.9752 14.1858 34.9318 14.1858 34.8885 14.2586L34.8321 14.3615C34.8229 14.3817 34.8074 14.3984 34.7879 14.4092C34.7684 14.42 34.7458 14.4243 34.7236 14.4215H34.6976C34.6456 14.4215 34.6369 14.4215 34.6672 14.3615L34.7453 14.2072ZM34.8408 16.1186C34.8591 16.101 34.8823 16.0891 34.9074 16.0844C34.9326 16.0797 34.9586 16.0825 34.9821 16.0923C35.0057 16.1021 35.0258 16.1186 35.04 16.1397C35.0541 16.1608 35.0616 16.1855 35.0616 16.2108C35.0616 16.236 35.0541 16.2608 35.04 16.2818C35.0258 16.3029 35.0057 16.3194 34.9821 16.3292C34.9586 16.339 34.9326 16.3418 34.9074 16.3371C34.8823 16.3324 34.8591 16.3205 34.8408 16.3029C34.8283 16.2909 34.8184 16.2766 34.8116 16.2608C34.8049 16.2449 34.8014 16.2279 34.8014 16.2108C34.8014 16.1936 34.8049 16.1766 34.8116 16.1607C34.8184 16.1449 34.8283 16.1306 34.8408 16.1186Z" fill="#009EDB"/>
<path d="M34.9325 16.3416C34.8983 16.3405 34.8658 16.3266 34.8417 16.3027C34.8175 16.2789 34.8034 16.2468 34.8024 16.213C34.8017 16.1955 34.8049 16.178 34.8116 16.1617C34.8184 16.1455 34.8285 16.1308 34.8414 16.1187C34.8528 16.1061 34.8669 16.0961 34.8826 16.0894C34.8983 16.0828 34.9154 16.0796 34.9325 16.0802C34.9681 16.0802 35.0024 16.0941 35.0276 16.1191C35.0528 16.144 35.067 16.1778 35.067 16.213C35.0675 16.2299 35.0643 16.2467 35.0575 16.2623C35.0508 16.2778 35.0407 16.2917 35.0279 16.303C35.0154 16.3153 35.0005 16.3251 34.9841 16.3317C34.9677 16.3383 34.9502 16.3417 34.9325 16.3416ZM34.9325 16.0844C34.9154 16.0844 34.8986 16.0879 34.8829 16.0945C34.8673 16.1011 34.8531 16.1108 34.8414 16.123C34.8185 16.1474 34.806 16.1797 34.8067 16.213C34.8069 16.2462 34.8195 16.2779 34.8417 16.3027C34.8665 16.3253 34.8987 16.3381 34.9325 16.3381C34.9662 16.3381 34.9987 16.3256 35.0236 16.303C35.0359 16.2914 35.0457 16.2774 35.0524 16.262C35.0592 16.2465 35.0626 16.2298 35.0626 16.213C35.0615 16.1792 35.0475 16.1472 35.0233 16.1233C34.9991 16.0994 34.9667 16.0855 34.9325 16.0844ZM34.9325 15.8916C34.5334 15.8916 34.3469 15.7159 34.3469 15.3387V15.0987C34.34 15.0211 34.3496 14.9429 34.375 14.8691C34.4004 14.7953 34.441 14.7276 34.4944 14.6702C34.6159 14.5714 34.7711 14.5223 34.9281 14.533C35.3229 14.533 35.5051 14.7087 35.5051 15.0859V15.3259C35.5168 15.4028 35.5101 15.4814 35.4855 15.5554C35.4609 15.6293 35.419 15.6965 35.3633 15.7515C35.3076 15.8066 35.2396 15.8479 35.1648 15.8722C35.0899 15.8966 35.0104 15.9032 34.9325 15.8916ZM34.9325 14.5544C34.7759 14.5412 34.6202 14.5888 34.4987 14.6873C34.4452 14.7445 34.4048 14.8123 34.3801 14.8862C34.3554 14.9602 34.347 15.0385 34.3556 15.1159V15.3559C34.3556 15.7287 34.5377 15.9001 34.9325 15.9001C35.089 15.913 35.2445 15.8653 35.3663 15.7673C35.4198 15.7101 35.4602 15.6423 35.4849 15.5684C35.5096 15.4944 35.518 15.4161 35.5094 15.3387V15.0987C35.5051 14.7259 35.3229 14.5716 34.9325 14.5716V14.5544ZM34.9325 15.7073C34.6549 15.7073 34.5464 15.6044 34.5464 15.3387V15.0987C34.5464 14.833 34.6505 14.7301 34.9325 14.7301C35.2144 14.7301 35.3099 14.833 35.3099 15.0987V15.3387C35.3099 15.6087 35.2101 15.7073 34.9325 15.7073ZM34.9325 14.7387C34.6549 14.7387 34.5508 14.833 34.5508 15.0987V15.3387C34.5508 15.6002 34.6592 15.6987 34.9325 15.6987C35.2058 15.6987 35.3055 15.6044 35.3055 15.3387V15.0987C35.3055 14.833 35.2058 14.7387 34.9325 14.7387ZM35.1841 14.4259C35.1613 14.4292 35.138 14.4246 35.1182 14.4129C35.0985 14.4011 35.0834 14.383 35.0756 14.3616L35.0149 14.263C35.0149 14.2244 34.9715 14.2073 34.9542 14.2073C34.9542 14.2073 34.9108 14.2073 34.8934 14.263L34.8327 14.3616C34.8249 14.383 34.8099 14.4011 34.7901 14.4129C34.7704 14.4246 34.7471 14.4292 34.7243 14.4259H34.6982C34.6679 14.4259 34.6549 14.4259 34.6505 14.4259C34.6462 14.4259 34.6505 14.4002 34.6505 14.3787L34.7503 14.2244C34.8154 14.1301 34.8501 14.0959 34.9412 14.0959C35.0323 14.0959 35.0626 14.1216 35.1277 14.2244L35.2275 14.3787C35.2275 14.4002 35.2535 14.4173 35.2275 14.4259C35.2014 14.4344 35.2144 14.4259 35.1841 14.4259ZM34.9325 14.203C34.9325 14.203 34.9759 14.203 34.9976 14.2587L35.0583 14.3616C35.066 14.3819 35.0806 14.3989 35.0995 14.4099C35.1185 14.4208 35.1407 14.4249 35.1624 14.4216C35.1927 14.4216 35.2058 14.4216 35.2101 14.4216C35.2144 14.4216 35.2101 14.4216 35.2101 14.3787L35.1364 14.2116C35.0756 14.1087 35.0366 14.083 34.9542 14.083C34.8718 14.083 34.8327 14.113 34.7676 14.2116L34.6679 14.3659C34.6679 14.3659 34.6679 14.4001 34.6679 14.4087C34.6679 14.4173 34.6679 14.4087 34.7113 14.4087H34.7026C34.7241 14.4106 34.7457 14.4059 34.7643 14.3951C34.783 14.3844 34.7978 14.3682 34.8067 14.3487L34.8674 14.2459C34.8891 14.2202 34.9108 14.203 34.9325 14.203Z" fill="#009EDB"/>
<path d="M35.7607 15.0901C35.7607 14.7473 35.9473 14.5501 36.3507 14.5501C36.4288 14.5476 36.5067 14.5593 36.5806 14.5844C36.6456 14.5844 36.663 14.623 36.663 14.683V14.7087C36.663 14.773 36.663 14.7944 36.5806 14.773C36.5086 14.7459 36.432 14.7328 36.355 14.7344C36.06 14.7344 35.9603 14.8501 35.9603 15.0944V15.3473C35.9603 15.6087 36.0774 15.703 36.3724 15.703C36.4533 15.7055 36.5341 15.6939 36.6109 15.6687C36.6717 15.6473 36.689 15.6687 36.689 15.733V15.7587C36.689 15.8144 36.689 15.8358 36.6023 15.853C36.5239 15.8782 36.4417 15.8897 36.3594 15.8873C35.9516 15.8873 35.7607 15.7158 35.7607 15.3473V15.0901Z" fill="#009EDB"/>
<path d="M36.359 15.8913C36.2027 15.902 36.0481 15.8546 35.9253 15.7585C35.8697 15.7025 35.8277 15.635 35.8021 15.5608C35.7766 15.4866 35.7683 15.4077 35.7778 15.3299V15.0728C35.7725 15.0002 35.7825 14.9273 35.8071 14.8587C35.8318 14.7901 35.8705 14.7273 35.9209 14.6742C36.0405 14.5711 36.1963 14.5188 36.3547 14.5285C36.4341 14.5281 36.5131 14.5396 36.5889 14.5628C36.654 14.5628 36.667 14.6056 36.667 14.6656V14.6913C36.667 14.7299 36.667 14.7513 36.667 14.7599C36.657 14.7652 36.6458 14.7679 36.6345 14.7679C36.6231 14.7679 36.612 14.7652 36.6019 14.7599C36.529 14.7371 36.4529 14.7256 36.3764 14.7256C36.0988 14.7256 35.9816 14.8285 35.9816 15.0813V15.3342C35.9816 15.5913 36.0944 15.6856 36.3937 15.6856C36.4733 15.6889 36.5528 15.6772 36.628 15.6513C36.6383 15.647 36.6493 15.6447 36.6605 15.6447C36.6717 15.6447 36.6828 15.647 36.693 15.6513C36.693 15.6513 36.693 15.6813 36.693 15.7199V15.7456C36.693 15.8056 36.693 15.8271 36.6106 15.8442C36.5296 15.8721 36.4448 15.888 36.359 15.8913ZM36.359 14.5542C35.9773 14.5542 35.7734 14.7385 35.7734 15.0899V15.3471C35.7734 15.7156 35.96 15.8828 36.3677 15.8828C36.4497 15.8842 36.5315 15.8741 36.6106 15.8528C36.6757 15.8528 36.693 15.8142 36.693 15.7585V15.7328C36.693 15.6985 36.693 15.6771 36.693 15.6685C36.693 15.6599 36.6627 15.6685 36.6367 15.6685C36.5594 15.6919 36.4789 15.7035 36.3981 15.7028C36.0988 15.7028 35.9643 15.5999 35.9643 15.3428V15.0899C35.9643 14.8328 36.0814 14.7256 36.3634 14.7256C36.4417 14.7248 36.5196 14.7379 36.5933 14.7642C36.6236 14.7642 36.641 14.7642 36.6497 14.7642C36.6583 14.7642 36.6497 14.7342 36.6497 14.6999V14.6742C36.6497 14.6185 36.6497 14.5971 36.5716 14.5756C36.4985 14.5632 36.4239 14.5618 36.3504 14.5713L36.359 14.5542Z" fill="#009EDB"/>
<path d="M37.5605 15.7199C37.5605 15.6556 37.5605 15.6384 37.6473 15.6513C37.7727 15.6875 37.9027 15.7063 38.0334 15.707C38.2372 15.707 38.3197 15.6684 38.3197 15.557C38.3197 15.4456 38.2763 15.4284 38.1505 15.3684L37.8295 15.2184C37.6603 15.137 37.5822 15.0599 37.5822 14.8799C37.5822 14.6999 37.7384 14.5713 38.0507 14.5713C38.1624 14.5707 38.2735 14.5866 38.3804 14.6184C38.4411 14.6184 38.4585 14.657 38.4585 14.717V14.7427C38.4585 14.807 38.4585 14.8199 38.376 14.8027C38.2694 14.7697 38.1581 14.7538 38.0464 14.7556C37.8512 14.7556 37.7774 14.7942 37.7774 14.9013C37.7774 15.0084 37.8252 15.0299 37.9162 15.0727L38.2546 15.2227C38.4324 15.3084 38.5192 15.3856 38.5192 15.5742C38.5192 15.7627 38.3587 15.9084 38.0204 15.9084C37.8944 15.91 37.7688 15.8941 37.6473 15.8613C37.5779 15.8399 37.5605 15.8184 37.5605 15.7627V15.7199Z" fill="#009EDB"/>
<path d="M38.0204 15.8914C37.8927 15.8917 37.7657 15.8744 37.643 15.8399C37.5779 15.8399 37.5605 15.8014 37.5605 15.7414C37.5605 15.7071 37.5605 15.6857 37.5605 15.6771C37.5605 15.6685 37.5953 15.6771 37.63 15.6771C37.7557 15.7113 37.8856 15.7286 38.016 15.7285C38.2242 15.7285 38.3023 15.6899 38.3023 15.5828C38.3023 15.4757 38.2633 15.4585 38.1331 15.3985L37.8078 15.2442C37.6473 15.1671 37.5605 15.0899 37.5605 14.9057C37.5605 14.7214 37.7124 14.5714 38.0334 14.5714C38.1455 14.5692 38.2571 14.5867 38.363 14.6228C38.4281 14.6228 38.4455 14.6614 38.4455 14.7214V14.7471C38.4535 14.7678 38.4535 14.7907 38.4455 14.8114C38.4232 14.8204 38.3983 14.8204 38.376 14.8114C38.2714 14.776 38.1613 14.7586 38.0507 14.7599C37.8599 14.7599 37.7861 14.8028 37.7861 14.9057C37.7882 14.9439 37.8023 14.9805 37.8264 15.0104C37.8504 15.0404 37.8834 15.0622 37.9206 15.0728L38.2589 15.2271C38.4324 15.3042 38.5235 15.3857 38.5235 15.5785C38.5235 15.7714 38.3587 15.8914 38.0204 15.8914ZM37.5866 15.6514H37.5605C37.5605 15.6514 37.5605 15.6814 37.5605 15.7114C37.5605 15.7671 37.5605 15.7885 37.643 15.8057C37.7643 15.8391 37.89 15.855 38.016 15.8528C38.3587 15.8528 38.5105 15.7542 38.5105 15.5228C38.5105 15.2914 38.4194 15.2528 38.2503 15.1757L37.9119 15.0214C37.8727 15.0115 37.8378 14.9895 37.8121 14.9587C37.7863 14.9279 37.7712 14.8898 37.7688 14.8499C37.7688 14.7428 37.8468 14.6999 38.042 14.6999C38.1541 14.6989 38.2655 14.7163 38.3717 14.7514C38.4021 14.7514 38.4194 14.7514 38.4324 14.7514C38.4365 14.7419 38.4386 14.7317 38.4386 14.7214C38.4386 14.7111 38.4365 14.7009 38.4324 14.6914V14.6657C38.4324 14.6057 38.4324 14.5928 38.3544 14.5714C38.2479 14.5374 38.1365 14.5215 38.0247 14.5242C37.708 14.5242 37.5605 14.6271 37.5605 14.8499C37.5605 15.0728 37.643 15.1071 37.8035 15.1842L38.1245 15.3385C38.2546 15.3985 38.298 15.4457 38.298 15.5271C38.298 15.6085 38.2199 15.6771 38.0073 15.6771C37.8755 15.6769 37.7442 15.6596 37.6169 15.6257L37.5866 15.6514Z" fill="#009EDB"/>
<path d="M38.7705 15.3386V15.0986C38.7705 14.7343 38.9657 14.55 39.3518 14.55C39.7378 14.55 39.9287 14.7386 39.9287 15.0986V15.3386C39.9287 15.7072 39.7378 15.8872 39.3518 15.8872C38.9657 15.8872 38.7705 15.6986 38.7705 15.3386ZM39.7292 15.0986C39.7292 14.8458 39.6424 14.7343 39.3518 14.7343C39.0611 14.7343 38.97 14.8458 38.97 15.0986V15.3386C38.97 15.5915 39.0655 15.7029 39.3518 15.7029C39.6381 15.7029 39.7292 15.5915 39.7292 15.3386V15.0986ZM39.1652 14.2072C39.2303 14.1129 39.265 14.0786 39.3518 14.0786C39.4385 14.0786 39.4776 14.1043 39.5383 14.2072L39.6424 14.3615C39.6728 14.4086 39.6424 14.4215 39.6077 14.4215C39.5854 14.4251 39.5626 14.4211 39.5429 14.4102C39.5232 14.3993 39.5078 14.3821 39.4993 14.3615L39.4385 14.2586C39.3951 14.1858 39.3518 14.1858 39.3127 14.2586L39.252 14.3615C39.226 14.4129 39.1999 14.4215 39.1436 14.4215C39.0872 14.4215 39.0785 14.4215 39.1089 14.3615L39.1652 14.2072ZM39.8376 14.0529C39.8267 14.0726 39.8103 14.0888 39.7902 14.0995C39.7702 14.1101 39.7475 14.1148 39.7248 14.1129H39.6988C39.6381 14.1129 39.6294 14.1129 39.6598 14.0486L39.7682 13.8386C39.7779 13.8122 39.7967 13.7901 39.8213 13.776C39.8459 13.7619 39.8747 13.7568 39.9027 13.7615H39.9287C39.9981 13.7615 40.0111 13.7615 39.9721 13.8343L39.8376 14.0529Z" fill="#009EDB"/>
<path d="M39.3524 15.8915C38.9576 15.8915 38.7711 15.7158 38.7711 15.3387V15.0987C38.7637 15.0213 38.7725 14.9433 38.7972 14.8696C38.8218 14.7958 38.8617 14.7279 38.9143 14.6701C39.0366 14.5728 39.1912 14.524 39.348 14.533C39.7428 14.533 39.9293 14.7087 39.9293 15.0858V15.3258C39.9336 15.7073 39.7384 15.8915 39.3524 15.8915ZM39.3524 14.5544C39.1959 14.542 39.0406 14.5896 38.9186 14.6873C38.8651 14.7444 38.8246 14.8123 38.7999 14.8862C38.7753 14.9601 38.7669 15.0384 38.7754 15.1158V15.3558C38.7754 15.7287 38.9576 15.9001 39.3524 15.9001C39.509 15.9138 39.6648 15.8661 39.7861 15.7673C39.8396 15.7101 39.8801 15.6422 39.9048 15.5683C39.9295 15.4944 39.9378 15.4161 39.9293 15.3387V15.0987C39.9076 14.7258 39.7428 14.5715 39.3524 14.5715V14.5544ZM39.3524 15.7073C39.0748 15.7073 38.9663 15.6044 38.9663 15.3387V15.0987C38.9663 14.833 39.0704 14.7301 39.3524 14.7301C39.6343 14.7301 39.7341 14.833 39.7341 15.0987V15.3387C39.7341 15.6087 39.63 15.7073 39.3524 15.7073ZM39.3524 14.7387C39.0748 14.7387 38.975 14.833 38.975 15.0987V15.3387C38.975 15.6001 39.0791 15.6987 39.3524 15.6987C39.6257 15.6987 39.7298 15.6044 39.7298 15.3387V15.0987C39.7298 14.833 39.6257 14.7387 39.3524 14.7387ZM39.6083 14.4258C39.5849 14.4294 39.561 14.4249 39.5405 14.4133C39.52 14.4016 39.5041 14.3833 39.4955 14.3615L39.4348 14.263C39.3958 14.1901 39.3567 14.1901 39.3133 14.263L39.2569 14.3615C39.2483 14.3833 39.2325 14.4016 39.212 14.4133C39.1915 14.4249 39.1676 14.4294 39.1442 14.4258C39.1138 14.4258 39.0964 14.4258 39.0921 14.4258C39.0878 14.4258 39.0921 14.4001 39.0921 14.3787L39.1919 14.2244C39.2526 14.1301 39.2916 14.0958 39.3784 14.0958C39.4652 14.0958 39.5042 14.1215 39.5693 14.2244L39.669 14.3787C39.669 14.4001 39.669 14.4173 39.669 14.4258C39.669 14.4344 39.6387 14.4258 39.6083 14.4258ZM39.3524 14.203C39.3524 14.203 39.3958 14.203 39.4174 14.2587L39.4782 14.3615C39.4873 14.3817 39.5028 14.3985 39.5223 14.4093C39.5419 14.4201 39.5644 14.4244 39.5866 14.4215C39.6126 14.4215 39.63 14.4215 39.6343 14.4215C39.6387 14.4215 39.6343 14.4215 39.6343 14.3787L39.5346 14.2244C39.4695 14.1215 39.4348 14.0958 39.348 14.0958C39.2613 14.0958 39.2266 14.1258 39.1658 14.2244L39.0661 14.3787C39.0661 14.3787 39.0661 14.413 39.0661 14.4215C39.0661 14.4301 39.0661 14.4215 39.1138 14.4215C39.1359 14.4237 39.1582 14.4191 39.1776 14.4084C39.197 14.3977 39.2126 14.3813 39.2222 14.3615L39.2786 14.2587C39.309 14.2201 39.3307 14.203 39.3524 14.203ZM39.7254 14.1173H39.6994C39.6647 14.1173 39.6473 14.1173 39.643 14.1173C39.636 14.0993 39.636 14.0795 39.643 14.0615L39.7558 13.8515C39.7588 13.8351 39.7652 13.8195 39.7747 13.8057C39.7841 13.7919 39.7964 13.7802 39.8107 13.7713C39.8249 13.7625 39.8409 13.7566 39.8576 13.7542C39.8743 13.7518 39.8913 13.7528 39.9076 13.7573H39.9336C39.9727 13.7573 39.9944 13.7573 39.9987 13.7573C40.003 13.7573 39.9987 13.7873 39.9987 13.8215L39.8686 14.0358C39.8573 14.0632 39.8371 14.0861 39.8111 14.1008C39.7852 14.1156 39.755 14.1213 39.7254 14.1173ZM39.9033 13.7615C39.8759 13.7579 39.8482 13.7635 39.8245 13.7776C39.8009 13.7916 39.7827 13.8131 39.7731 13.8387L39.6604 14.0487C39.6604 14.0787 39.6604 14.0915 39.6604 14.1001C39.6604 14.1087 39.6604 14.1001 39.7124 14.1001H39.7384C39.7614 14.1006 39.784 14.0948 39.8039 14.0835C39.8238 14.0722 39.8401 14.0557 39.8512 14.0358L39.9813 13.8215C39.9813 13.7915 40.0074 13.7744 39.9813 13.7658C39.9553 13.7573 39.9553 13.7658 39.9206 13.7658L39.9033 13.7615Z" fill="#009EDB"/>
<path d="M40.4066 15.7798C40.4066 15.8484 40.4066 15.8612 40.3241 15.8612H40.2938C40.2287 15.8612 40.207 15.8612 40.207 15.7798V15.0384C40.207 14.7127 40.3936 14.5498 40.7623 14.5498C41.131 14.5498 41.3088 14.7212 41.3088 15.0384V15.7798C41.3088 15.8484 41.3088 15.8612 41.2264 15.8612H41.2091C41.1353 15.8612 41.1223 15.8612 41.1223 15.7798V15.0384C41.1223 14.8284 41.0399 14.7341 40.7753 14.7341C40.5107 14.7341 40.4196 14.8327 40.4196 15.0384L40.4066 15.7798Z" fill="#009EDB"/>
<path d="M41.2087 15.857C41.1349 15.857 41.1176 15.857 41.1176 15.7713V15.0384C41.1176 14.8198 41.0265 14.7384 40.7749 14.7384C40.5233 14.7384 40.4235 14.8198 40.4235 15.0384V15.7798C40.4235 15.8484 40.4235 15.8655 40.3368 15.8655H40.3064C40.2414 15.8655 40.2197 15.8655 40.2197 15.7798V15.0384C40.2197 14.7127 40.4062 14.5455 40.7749 14.5455C40.8522 14.5377 40.9303 14.545 41.0048 14.5671C41.0792 14.5891 41.1485 14.6255 41.2087 14.6741C41.255 14.7225 41.2904 14.7799 41.3129 14.8426C41.3353 14.9054 41.3441 14.9721 41.3388 15.0384V15.7798C41.3128 15.857 41.2998 15.857 41.2087 15.857ZM40.7749 14.7298C41.0308 14.7298 41.1263 14.8155 41.1263 15.0384V15.7798C41.1263 15.8484 41.1263 15.857 41.2087 15.857C41.2781 15.857 41.2911 15.857 41.2911 15.7798V15.0384C41.2966 14.9727 41.2878 14.9066 41.2654 14.8445C41.243 14.7824 41.2074 14.7258 41.161 14.6784C41.0494 14.5982 40.9124 14.5602 40.7749 14.5713C40.62 14.5539 40.4644 14.597 40.3411 14.6913C40.2928 14.7385 40.2554 14.7956 40.2315 14.8584C40.2075 14.9213 40.1976 14.9885 40.2023 15.0555V15.797C40.2023 15.8655 40.2023 15.8741 40.2847 15.8741H40.3411C40.4105 15.8741 40.4235 15.8741 40.4235 15.797V15.0384C40.4062 14.8155 40.506 14.7298 40.7749 14.7298Z" fill="#009EDB"/>
<path d="M42.6793 15.0342C42.6793 15.3342 42.5015 15.4884 42.1328 15.4884C42.0405 15.4785 41.9474 15.4785 41.8552 15.4884C41.836 15.4916 41.8187 15.5017 41.8067 15.5167C41.7947 15.5318 41.7887 15.5507 41.7901 15.5699C41.7901 15.6042 41.7901 15.6299 41.8595 15.6427C41.9504 15.6497 42.0418 15.6497 42.1328 15.6427C42.282 15.6324 42.4315 15.6605 42.5665 15.7242C42.6116 15.7547 42.6475 15.7967 42.6704 15.8458C42.6933 15.8948 42.7024 15.949 42.6967 16.0027C42.7026 16.0608 42.6938 16.1194 42.6711 16.1733C42.6484 16.2271 42.6125 16.2746 42.5665 16.3113C42.4333 16.3807 42.283 16.4119 42.1328 16.4013C41.9826 16.4106 41.8327 16.3795 41.699 16.3113C41.6564 16.2797 41.6225 16.238 41.6005 16.1901C41.5785 16.1421 41.5691 16.0895 41.5732 16.037C41.5702 15.9813 41.5828 15.9258 41.6096 15.8767C41.6364 15.8276 41.6763 15.7867 41.725 15.7584C41.6909 15.7449 41.662 15.721 41.6425 15.6902C41.623 15.6594 41.6139 15.6232 41.6166 15.587C41.6166 15.4713 41.686 15.4027 41.8291 15.3813C41.756 15.3504 41.695 15.297 41.6551 15.229C41.6152 15.1611 41.5987 15.0822 41.6079 15.0042V14.9999C41.6079 14.717 41.8118 14.5713 42.1545 14.5713C42.2482 14.5693 42.3413 14.5868 42.4277 14.6227L42.5796 14.4899C42.6229 14.4513 42.6446 14.4513 42.688 14.4899C42.7314 14.5284 42.7314 14.5499 42.688 14.5927L42.5709 14.7127C42.609 14.751 42.6387 14.7967 42.6581 14.8468C42.6775 14.897 42.6862 14.9505 42.6837 15.0042L42.6793 15.0342ZM41.8768 15.8313C41.8371 15.8511 41.8041 15.882 41.7818 15.92C41.7594 15.958 41.7488 16.0017 41.751 16.0456C41.751 16.217 41.8508 16.2599 42.1328 16.2599C42.4147 16.2599 42.5145 16.217 42.5145 16.0413C42.5145 15.8656 42.4191 15.8484 42.1328 15.8484C42.0471 15.849 41.9616 15.8432 41.8768 15.8313ZM42.4798 14.9999C42.4798 14.8156 42.3627 14.7256 42.1328 14.7256C41.9029 14.7256 41.7814 14.8156 41.7814 14.9999V15.0342C41.7814 15.2184 41.8682 15.3127 42.1328 15.3127C42.3974 15.3127 42.4798 15.2184 42.4798 15.0342V14.9999Z" fill="#009EDB"/>
<path d="M42.1323 16.4315C41.9825 16.4428 41.8324 16.4131 41.6985 16.3458C41.6561 16.313 41.6225 16.2705 41.6006 16.222C41.5787 16.1734 41.5691 16.1203 41.5727 16.0672C41.5693 16.0124 41.5808 15.9577 41.606 15.9087C41.6312 15.8598 41.6691 15.8183 41.7159 15.7887C41.683 15.7739 41.6553 15.7496 41.6367 15.719C41.6182 15.6884 41.6094 15.6529 41.6118 15.6172C41.6118 15.503 41.6812 15.4344 41.82 15.4115C41.7481 15.3794 41.6884 15.3256 41.6494 15.2578C41.6105 15.1901 41.5943 15.1118 41.6031 15.0344V15.0001C41.6013 14.9371 41.6136 14.8745 41.6391 14.8167C41.6646 14.7589 41.7026 14.7074 41.7506 14.6658C41.8671 14.5812 42.0096 14.5388 42.154 14.5458C42.2477 14.5438 42.3408 14.5613 42.4273 14.5972L42.5791 14.4687C42.6225 14.4258 42.6442 14.4258 42.6875 14.4687C42.7136 14.4901 42.7222 14.503 42.7222 14.5201C42.7222 14.5372 42.7222 14.5501 42.6875 14.5758L42.5704 14.6915C42.61 14.729 42.6409 14.7744 42.6611 14.8246C42.6813 14.8749 42.6903 14.9289 42.6875 14.983V15.0172C42.6875 15.3172 42.501 15.4715 42.1366 15.4715C42.0444 15.4611 41.9513 15.4611 41.859 15.4715C41.8414 15.4755 41.8258 15.4853 41.8147 15.4994C41.8037 15.5134 41.7979 15.5309 41.7983 15.5487C41.7983 15.583 41.82 15.6044 41.8634 15.6172C41.9543 15.625 42.0457 15.625 42.1366 15.6172C42.2931 15.6031 42.4506 15.6313 42.5921 15.6987C42.6371 15.7291 42.6726 15.7712 42.6948 15.8204C42.717 15.8696 42.725 15.9239 42.7179 15.9772C42.7254 16.0361 42.7174 16.0958 42.6946 16.1506C42.6718 16.2055 42.635 16.2535 42.5878 16.2901C42.4523 16.3784 42.2945 16.4274 42.1323 16.4315ZM42.1323 14.5544C41.794 14.5544 41.5901 14.7215 41.5901 14.983V15.0172C41.5812 15.0947 41.5975 15.1729 41.6364 15.2407C41.6754 15.3084 41.7351 15.3622 41.807 15.3944C41.6638 15.4158 41.5944 15.4801 41.5944 15.5958C41.5936 15.6317 41.6035 15.6671 41.6227 15.6975C41.642 15.728 41.6699 15.7522 41.7029 15.7672C41.6553 15.7953 41.6164 15.8357 41.5904 15.8841C41.5644 15.9324 41.5523 15.9869 41.5554 16.0415C41.552 16.0935 41.5612 16.1455 41.5823 16.1933C41.6035 16.241 41.6359 16.283 41.6768 16.3158C41.8115 16.3809 41.961 16.4105 42.1106 16.4015C42.2604 16.4125 42.4104 16.3829 42.5444 16.3158C42.5903 16.2791 42.6263 16.2317 42.649 16.1778C42.6717 16.1239 42.6805 16.0653 42.6745 16.0072C42.6808 15.9545 42.6724 15.9011 42.6503 15.8528C42.6281 15.8045 42.593 15.763 42.5487 15.733C42.4137 15.6693 42.2642 15.6413 42.115 15.6515C42.0227 15.6613 41.9296 15.6613 41.8373 15.6515C41.8197 15.6486 41.8036 15.6398 41.7917 15.6265C41.7799 15.6132 41.773 15.5963 41.7723 15.5787C41.7709 15.5595 41.7769 15.5406 41.7889 15.5255C41.8009 15.5105 41.8182 15.5004 41.8373 15.4972C41.9296 15.4865 42.0227 15.4865 42.115 15.4972C42.2684 15.5124 42.4222 15.4729 42.5487 15.3858C42.5949 15.3426 42.6309 15.2898 42.6541 15.2313C42.6774 15.1728 42.6873 15.11 42.6832 15.0472V15.0001C42.6862 14.9467 42.6773 14.8932 42.6571 14.8436C42.6368 14.794 42.6058 14.7494 42.5661 14.713L42.6832 14.593C42.7092 14.593 42.7179 14.5544 42.7179 14.5415C42.7165 14.532 42.713 14.5229 42.7078 14.5148C42.7026 14.5066 42.6957 14.4997 42.6875 14.4944H42.6659C42.6268 14.4558 42.6051 14.4558 42.5617 14.4944L42.4099 14.6272C42.3225 14.5893 42.2278 14.5703 42.1323 14.5715V14.5544ZM42.1323 16.2687C41.8373 16.2687 41.7506 16.2172 41.7506 16.0501C41.7459 16.0058 41.7555 15.9612 41.7781 15.9227C41.8007 15.8842 41.8351 15.8537 41.8764 15.8358C41.9616 15.8411 42.0471 15.8411 42.1323 15.8358C42.4186 15.8358 42.5184 15.8658 42.5184 16.033C42.5184 16.2001 42.4229 16.2858 42.1323 16.2858V16.2687ZM41.8764 15.8401C41.8371 15.8589 41.8045 15.8891 41.7828 15.9265C41.7611 15.964 41.7514 16.0071 41.7549 16.0501C41.7549 16.213 41.8417 16.2644 42.1323 16.2644C42.4229 16.2644 42.5097 16.213 42.5097 16.0458C42.5097 15.8787 42.4186 15.853 42.1323 15.853C42.0472 15.8597 41.9617 15.8611 41.8764 15.8572V15.8401ZM42.1323 15.3215C41.8807 15.3215 41.7809 15.2401 41.7809 15.0387V15.0001C41.7809 14.8115 41.8937 14.7215 42.1323 14.7215C42.3709 14.7215 42.4837 14.8158 42.4837 15.0001V15.0344C42.4837 15.2358 42.3839 15.3172 42.1323 15.3172V15.3215ZM42.1323 14.7301C41.8981 14.7301 41.7853 14.8201 41.7853 15.0044V15.0387C41.7853 15.2358 41.8851 15.3172 42.1323 15.3172C42.3796 15.3172 42.4793 15.2358 42.4793 15.0387V15.0001C42.4793 14.8201 42.3622 14.7258 42.1323 14.7258V14.7301Z" fill="#009EDB"/>
<path d="M45.0129 14.3571C45.0129 14.4128 45.0129 14.43 44.9392 14.43H44.783V15.3428C44.783 15.7071 44.5878 15.8871 44.2018 15.8871C43.8157 15.8871 43.6248 15.7071 43.6248 15.3428V15.0986C43.617 15.0263 43.6258 14.9532 43.6507 14.8849C43.6756 14.8165 43.7159 14.7546 43.7685 14.7038C43.8212 14.6531 43.8848 14.6148 43.9546 14.5918C44.0243 14.5689 44.0985 14.5619 44.1714 14.5714C44.2544 14.5579 44.3396 14.5685 44.4167 14.602C44.4937 14.6355 44.5592 14.6904 44.6052 14.76V14.4514H44.2451C44.1844 14.4514 44.1714 14.4514 44.1714 14.3786C44.1714 14.3228 44.1714 14.3057 44.2451 14.3057H44.6052V14.1428C44.6052 14.07 44.6052 14.0571 44.6876 14.0571H44.6789C44.744 14.0571 44.7657 14.0571 44.7657 14.1428V14.2843H44.9218C44.9782 14.2843 44.9956 14.2843 44.9956 14.3571H45.0129ZM43.8114 15.3386C43.8114 15.5914 43.8981 15.7028 44.1888 15.7028C44.4794 15.7028 44.5705 15.5914 44.5705 15.3386V15.0986C44.5705 14.8457 44.4794 14.7343 44.1888 14.7343C43.8981 14.7343 43.8114 14.8457 43.8114 15.0986V15.3386Z" fill="#009EDB"/>
<path d="M44.2022 15.8913C44.0452 15.9025 43.8898 15.8533 43.7685 15.7542C43.715 15.697 43.6745 15.6292 43.6498 15.5552C43.6251 15.4813 43.6168 15.403 43.6253 15.3256V15.0813C43.6173 15.0043 43.6255 14.9264 43.6494 14.8527C43.6733 14.7789 43.7123 14.7108 43.7641 14.6527C43.8218 14.5996 43.8905 14.5595 43.9654 14.5351C44.0402 14.5107 44.1196 14.5026 44.1979 14.5113C44.2764 14.5024 44.3559 14.5149 44.4278 14.5474C44.4996 14.5798 44.5611 14.6311 44.6057 14.6956V14.3999H44.2456C44.1849 14.3999 44.1675 14.3999 44.1675 14.3227C44.1675 14.2627 44.1675 14.2456 44.2456 14.2456H44.6013V14.1427C44.6013 14.0699 44.6013 14.0527 44.6881 14.0527H44.6794C44.7445 14.0527 44.7662 14.0527 44.7662 14.1427V14.2799H44.9223C44.9787 14.2799 45.0004 14.2799 45.0004 14.357C45.0004 14.4127 45.0004 14.4342 44.9223 14.4342H44.7662V15.3427C44.7835 15.707 44.5883 15.8913 44.2022 15.8913ZM44.1719 14.5713C44.0984 14.5654 44.0244 14.574 43.9544 14.5969C43.8843 14.6197 43.8196 14.6562 43.7641 14.7042C43.7138 14.763 43.6759 14.8313 43.6528 14.9049C43.6297 14.9786 43.6218 15.056 43.6297 15.1327V15.377C43.6197 15.4541 43.6269 15.5325 43.6509 15.6065C43.6749 15.6806 43.715 15.7485 43.7685 15.8056C43.8898 15.9045 44.0456 15.9522 44.2022 15.9384C44.3587 15.9508 44.514 15.9032 44.636 15.8056C44.6898 15.7486 44.7304 15.6808 44.7551 15.6068C44.7798 15.5328 44.788 15.4544 44.7792 15.377V14.4256H44.9397C44.9917 14.4256 45.0134 14.4256 45.0134 14.357C45.0134 14.3056 45.0134 14.2884 44.9397 14.2884H44.7792V14.1427C44.7792 14.0699 44.7792 14.0613 44.6968 14.0613H44.6794C44.61 14.0613 44.6013 14.0613 44.6013 14.1427V14.2884H44.2456C44.1849 14.2884 44.1762 14.2884 44.1762 14.357C44.1762 14.4084 44.1762 14.4256 44.2456 14.4256H44.61V14.7513C44.5626 14.6825 44.4959 14.6288 44.4181 14.5969C44.3403 14.5649 44.2547 14.556 44.1719 14.5713ZM44.2022 15.7242C43.9246 15.7242 43.8205 15.6256 43.8205 15.3556V15.1156C43.8205 14.8499 43.929 14.747 44.2022 14.747C44.4755 14.747 44.5883 14.8499 44.5883 15.1156V15.3556C44.5883 15.6042 44.4799 15.707 44.2022 15.707V15.7242ZM44.2022 14.7556C43.9333 14.7556 43.8249 14.8542 43.8249 15.1156V15.3556C43.8249 15.6213 43.929 15.7156 44.2022 15.7156C44.4755 15.7156 44.5796 15.6213 44.5796 15.3556V15.1156C44.5796 14.8327 44.4799 14.7384 44.2022 14.7384V14.7556Z" fill="#009EDB"/>
<path d="M45.0479 15.3384V15.0984C45.0479 14.7341 45.2387 14.5498 45.6291 14.5498C45.9197 14.5498 46.0889 14.6484 46.1627 14.8327C46.2017 14.8327 46.2407 14.7641 46.2407 14.6269C46.2407 14.5884 46.2407 14.5755 46.3015 14.5755H46.3448C46.3926 14.5755 46.4012 14.5755 46.4012 14.6269C46.4012 14.8369 46.3188 14.9398 46.193 14.9741C46.1976 15.0154 46.1976 15.0571 46.193 15.0984V15.3384C46.193 15.7069 46.0022 15.8869 45.6204 15.8869C45.2387 15.8869 45.0479 15.6984 45.0479 15.3384ZM46.0065 15.0984C46.0065 14.8455 45.9154 14.7341 45.6291 14.7341C45.3428 14.7341 45.2431 14.8455 45.2431 15.0984V15.3384C45.2431 15.5912 45.3428 15.7027 45.6291 15.7027C45.9154 15.7027 46.0065 15.5912 46.0065 15.3384V15.0984Z" fill="#009EDB"/>
<path d="M45.6288 15.8913C45.2297 15.8913 45.0432 15.7156 45.0432 15.3384V15.0984C45.0363 15.0208 45.0459 14.9426 45.0713 14.8688C45.0967 14.795 45.1373 14.7273 45.1907 14.6698C45.3122 14.5711 45.4674 14.522 45.6244 14.5327C45.9107 14.5327 46.0582 14.6227 46.158 14.8156C46.21 14.7941 46.2317 14.7256 46.2317 14.6141C46.2317 14.5713 46.2317 14.5584 46.2968 14.5584H46.3402C46.3879 14.5584 46.4009 14.5584 46.4009 14.6141C46.4009 14.8027 46.3315 14.9227 46.1927 14.9656C46.195 15.0055 46.195 15.0456 46.1927 15.0856V15.3256C46.2041 15.4017 46.1975 15.4794 46.1733 15.5526C46.1492 15.6258 46.1081 15.6924 46.0534 15.7473C45.9988 15.8021 45.932 15.8437 45.8583 15.8687C45.7846 15.8937 45.706 15.9014 45.6288 15.8913ZM45.6288 14.5541C45.4722 14.5409 45.3165 14.5885 45.195 14.687C45.1415 14.7441 45.101 14.812 45.0763 14.8859C45.0517 14.9599 45.0433 15.0382 45.0519 15.1156V15.3556C45.0519 15.7284 45.234 15.8998 45.6288 15.8998C45.7853 15.9126 45.9408 15.865 46.0626 15.767C46.116 15.7098 46.1565 15.642 46.1812 15.568C46.2059 15.4941 46.2142 15.4158 46.2057 15.3384V15.0984C46.2082 15.057 46.2082 15.0155 46.2057 14.9741C46.3445 14.9313 46.4139 14.8156 46.4139 14.627C46.4139 14.5884 46.4139 14.5798 46.3575 14.5798H46.3141C46.2708 14.5798 46.2578 14.5798 46.2578 14.627C46.2578 14.7427 46.2317 14.8113 46.1753 14.837C46.0799 14.6441 45.9151 14.5713 45.6288 14.5713V14.5541ZM45.6288 15.707C45.3512 15.707 45.2427 15.6041 45.2427 15.3384V15.0984C45.2427 14.8327 45.3468 14.7298 45.6288 14.7298C45.9107 14.7298 46.0062 14.8327 46.0062 15.0984V15.3384C46.0062 15.6084 45.9064 15.707 45.6288 15.707ZM45.6288 14.7384C45.3512 14.7384 45.2471 14.8327 45.2471 15.0984V15.3384C45.2471 15.5998 45.3555 15.6984 45.6288 15.6984C45.9021 15.6984 46.0018 15.6041 46.0018 15.3384V15.0984C46.0018 14.8327 45.9021 14.7384 45.6288 14.7384Z" fill="#009EDB"/>
<path d="M46.6829 15.7798C46.6829 15.8484 46.6829 15.8612 46.5962 15.8612H46.5658C46.5007 15.8612 46.4834 15.8612 46.4834 15.7798V15.0384C46.4834 14.7127 46.6699 14.5498 47.0343 14.5498C47.3987 14.5498 47.5852 14.7212 47.5852 15.0384V15.7798C47.5852 15.8484 47.5852 15.8612 47.4984 15.8612H47.4681C47.3943 15.8612 47.3813 15.8612 47.3813 15.7798V15.0384C47.3813 14.8284 47.3032 14.7341 47.0343 14.7341C46.7654 14.7341 46.6829 14.8327 46.6829 15.0384V15.7798Z" fill="#009EDB"/>
<path d="M47.4982 15.857H47.4678C47.394 15.857 47.381 15.857 47.381 15.7713V15.0384C47.381 14.8198 47.2856 14.7384 47.034 14.7384C46.7824 14.7384 46.6827 14.8198 46.6827 15.0384V15.7798C46.6827 15.8484 46.6827 15.8655 46.5959 15.8655H46.5655C46.5005 15.8655 46.4788 15.8655 46.4788 15.7798V15.0384C46.4788 14.7127 46.6653 14.5455 47.034 14.5455C47.1113 14.5377 47.1894 14.545 47.2639 14.5671C47.3383 14.5891 47.4076 14.6255 47.4678 14.6741C47.5148 14.722 47.5507 14.7793 47.5732 14.8422C47.5956 14.9051 47.6041 14.972 47.5979 15.0384V15.7798C47.5849 15.857 47.5719 15.857 47.4982 15.857ZM47.034 14.7213C47.2899 14.7213 47.3854 14.807 47.3854 15.0298V15.7713C47.3854 15.8398 47.3854 15.8484 47.4678 15.8484H47.4982C47.5676 15.8484 47.5806 15.8484 47.5806 15.7713V15.0384C47.5858 14.9731 47.5774 14.9074 47.5557 14.8454C47.5341 14.7835 47.4997 14.7266 47.4548 14.6784C47.3943 14.6305 47.3248 14.5949 47.2504 14.5736C47.176 14.5523 47.098 14.5457 47.021 14.5541C46.8661 14.5368 46.7105 14.5798 46.5872 14.6741C46.5389 14.7214 46.5015 14.7784 46.4776 14.8413C46.4536 14.9042 46.4437 14.9714 46.4484 15.0384V15.7798C46.4484 15.8484 46.4484 15.857 46.5308 15.857H46.5612C46.6306 15.857 46.6436 15.857 46.6436 15.7798V15.0384C46.6783 14.8155 46.7781 14.7298 47.034 14.7298V14.7213Z" fill="#009EDB"/>
<path d="M49.6589 15.0342C49.6589 15.3342 49.4811 15.4884 49.1167 15.4884C49.023 15.4783 48.9285 15.4783 48.8348 15.4884C48.8156 15.4916 48.7983 15.5017 48.7863 15.5167C48.7743 15.5318 48.7684 15.5507 48.7697 15.5699C48.7697 15.6042 48.7697 15.6299 48.8391 15.6427C48.9315 15.6498 49.0243 15.6498 49.1167 15.6427C49.266 15.6324 49.4154 15.6605 49.5505 15.7242C49.5944 15.7555 49.6292 15.7978 49.6513 15.8467C49.6734 15.8957 49.682 15.9495 49.6763 16.0027C49.6822 16.0608 49.6735 16.1194 49.6507 16.1733C49.628 16.2271 49.5921 16.2746 49.5462 16.3113C49.4131 16.3812 49.2627 16.4124 49.1124 16.4013C48.9536 16.4149 48.7941 16.3837 48.6526 16.3113C48.6113 16.2787 48.5787 16.2368 48.5576 16.189C48.5364 16.1412 48.5273 16.089 48.5311 16.037C48.5277 15.9817 48.5396 15.9265 48.5656 15.8774C48.5916 15.8284 48.6307 15.7872 48.6786 15.7584C48.6445 15.7449 48.6156 15.721 48.5961 15.6902C48.5766 15.6594 48.5675 15.6232 48.5702 15.587C48.5702 15.4713 48.6396 15.4027 48.7827 15.3813C48.7096 15.3504 48.6486 15.297 48.6087 15.229C48.5688 15.1611 48.5523 15.0822 48.5615 15.0042V14.9999C48.5615 14.717 48.7654 14.5713 49.1124 14.5713C49.2047 14.5696 49.2963 14.5872 49.3813 14.6227L49.5331 14.4899C49.5765 14.4513 49.5982 14.4513 49.6416 14.4899C49.685 14.5284 49.685 14.5499 49.6416 14.5927L49.5245 14.7127C49.5626 14.751 49.5922 14.7967 49.6116 14.8468C49.631 14.897 49.6398 14.9505 49.6372 15.0042L49.6589 15.0342ZM48.8564 15.8313C48.8167 15.8511 48.7837 15.882 48.7614 15.92C48.7391 15.958 48.7284 16.0017 48.7307 16.0456C48.7307 16.217 48.8304 16.2599 49.1167 16.2599C49.403 16.2599 49.4941 16.217 49.4941 16.0413C49.4941 15.8656 49.3987 15.8484 49.1167 15.8484C49.0297 15.8492 48.9426 15.8435 48.8564 15.8313ZM49.4507 14.9999C49.4507 14.8156 49.3379 14.7256 49.108 14.7256C48.8781 14.7256 48.7567 14.8156 48.7567 14.9999V15.0342C48.7567 15.2184 48.8391 15.3127 49.108 15.3127C49.377 15.3127 49.4507 15.2184 49.4507 15.0342V14.9999Z" fill="#009EDB"/>
<path d="M49.1166 16.4315C48.9582 16.4467 48.7987 16.417 48.6568 16.3458C48.6144 16.313 48.5808 16.2705 48.5589 16.222C48.537 16.1734 48.5274 16.1203 48.531 16.0672C48.5276 16.0119 48.5395 15.9568 48.5655 15.9077C48.5915 15.8586 48.6306 15.8174 48.6785 15.7887C48.6444 15.7751 48.6155 15.7512 48.596 15.7204C48.5765 15.6896 48.5674 15.6535 48.5701 15.6172C48.5701 15.503 48.6395 15.4344 48.7783 15.4115C48.7064 15.3794 48.6467 15.3256 48.6077 15.2578C48.5688 15.1901 48.5525 15.1118 48.5614 15.0344V15.0001C48.5596 14.9371 48.5719 14.8745 48.5974 14.8167C48.6228 14.7589 48.6609 14.7074 48.7089 14.6658C48.8267 14.5806 48.9708 14.5382 49.1166 14.5458C49.2089 14.5442 49.3006 14.5617 49.3856 14.5972L49.5374 14.4687C49.5808 14.4258 49.6025 14.4258 49.6458 14.4687C49.6719 14.4901 49.6805 14.503 49.6805 14.5201C49.6805 14.5372 49.6805 14.5501 49.6458 14.5758L49.5331 14.6915C49.5711 14.7298 49.6008 14.7755 49.6202 14.8256C49.6396 14.8758 49.6484 14.9293 49.6458 14.983V15.0172C49.6458 15.3172 49.4593 15.4715 49.0993 15.4715C49.0056 15.4609 48.911 15.4609 48.8173 15.4715C48.7997 15.4755 48.7841 15.4853 48.773 15.4994C48.7619 15.5134 48.7561 15.5309 48.7566 15.5487C48.7566 15.583 48.7566 15.6044 48.8217 15.6172C48.914 15.6251 49.0069 15.6251 49.0993 15.6172C49.2486 15.607 49.398 15.635 49.5331 15.6987C49.5785 15.7289 49.6146 15.7709 49.6375 15.82C49.6605 15.8691 49.6694 15.9235 49.6632 15.9772C49.6698 16.0364 49.6609 16.0963 49.6374 16.151C49.6138 16.2058 49.5764 16.2537 49.5287 16.2901C49.4058 16.3711 49.2639 16.4198 49.1166 16.4315ZM49.1166 14.5544C48.7739 14.5544 48.5701 14.7215 48.5701 14.983V15.0172C48.5612 15.0947 48.5774 15.1729 48.6164 15.2407C48.6554 15.3084 48.7151 15.3622 48.787 15.3944C48.6438 15.4158 48.5787 15.4801 48.5787 15.5958C48.577 15.6314 48.586 15.6666 48.6045 15.6971C48.623 15.7276 48.6503 15.752 48.6829 15.7672C48.6353 15.7953 48.5964 15.8357 48.5704 15.8841C48.5444 15.9324 48.5323 15.9869 48.5354 16.0415C48.5317 16.094 48.5413 16.1465 48.5632 16.1944C48.5852 16.2422 48.6188 16.284 48.6612 16.3158C48.9508 16.4303 49.2738 16.4303 49.5634 16.3158C49.6089 16.2789 49.6442 16.2313 49.6662 16.1774C49.6881 16.1235 49.6961 16.065 49.6892 16.0072C49.6955 15.9545 49.6871 15.9011 49.6649 15.8528C49.6428 15.8045 49.6077 15.763 49.5634 15.733C49.4289 15.6677 49.279 15.6396 49.1296 15.6515C49.0374 15.6617 48.9443 15.6617 48.852 15.6515C48.8043 15.6515 48.7826 15.613 48.7826 15.5787C48.7813 15.5595 48.7872 15.5406 48.7992 15.5255C48.8113 15.5105 48.8285 15.5004 48.8477 15.4972C48.9414 15.4864 49.036 15.4864 49.1296 15.4972C49.2744 15.5067 49.4181 15.4674 49.5374 15.3858C49.5836 15.3426 49.6195 15.2898 49.6428 15.2313C49.666 15.1728 49.6759 15.11 49.6719 15.0472V15.0001C49.6749 14.9467 49.666 14.8932 49.6457 14.8436C49.6255 14.794 49.5944 14.7494 49.5547 14.713L49.6762 14.593C49.6925 14.5802 49.7034 14.5618 49.7066 14.5415C49.7051 14.532 49.7017 14.5229 49.6965 14.5148C49.6912 14.5066 49.6843 14.4997 49.6762 14.4944C49.6328 14.4515 49.6155 14.4558 49.5678 14.4944L49.4159 14.6272C49.3219 14.5858 49.2194 14.5668 49.1166 14.5715V14.5544ZM49.1166 16.2687C48.8173 16.2687 48.7306 16.2172 48.7306 16.0501C48.7258 16.0058 48.7355 15.9612 48.7581 15.9227C48.7807 15.8842 48.8151 15.8537 48.8564 15.8358C48.943 15.8412 49.03 15.8412 49.1166 15.8358C49.3986 15.8358 49.4984 15.8658 49.4984 16.033C49.4984 16.2001 49.3682 16.2858 49.1166 16.2858V16.2687ZM48.8564 15.8401C48.8171 15.8589 48.7845 15.8891 48.7628 15.9265C48.7411 15.964 48.7314 16.0071 48.7349 16.0501C48.7349 16.213 48.8217 16.2644 49.1166 16.2644C49.4116 16.2644 49.4897 16.213 49.4897 16.0458C49.4897 15.8787 49.3986 15.853 49.1166 15.853C49.0301 15.8598 48.9431 15.8612 48.8564 15.8572V15.8401ZM49.1166 15.3215C48.865 15.3215 48.7609 15.2401 48.7609 15.0387V15.0001C48.7609 14.8115 48.8781 14.7215 49.1166 14.7215C49.3552 14.7215 49.4636 14.8158 49.4636 15.0001V15.0344C49.4506 15.2358 49.3639 15.3172 49.1166 15.3172V15.3215ZM49.1166 14.7301C48.8781 14.7301 48.7653 14.8201 48.7653 15.0044V15.0387C48.7653 15.2358 48.865 15.3172 49.1166 15.3172C49.3682 15.3172 49.4593 15.2358 49.4593 15.0387V15.0001C49.4506 14.8201 49.3422 14.7258 49.1166 14.7258V14.7301Z" fill="#009EDB"/>
<path d="M50.188 14.173C50.1886 14.1897 50.1858 14.2063 50.1797 14.2219C50.1736 14.2375 50.1645 14.2517 50.1527 14.2637C50.141 14.2757 50.1269 14.2852 50.1114 14.2917C50.0958 14.2982 50.0791 14.3016 50.0622 14.3016C50.0448 14.3022 50.0274 14.2993 50.0111 14.293C49.9948 14.2868 49.9799 14.2775 49.9674 14.2655C49.9548 14.2535 49.9448 14.2391 49.938 14.2232C49.9312 14.2073 49.9277 14.1903 49.9277 14.173C49.9289 14.1385 49.9435 14.1058 49.9686 14.0818C49.9937 14.0578 50.0273 14.0444 50.0622 14.0444C50.096 14.0455 50.128 14.0596 50.1514 14.0836C50.1749 14.1076 50.188 14.1396 50.188 14.173ZM49.9624 14.6573C49.9624 14.593 49.9624 14.5759 50.0449 14.5759H50.0752C50.1403 14.5759 50.1576 14.5759 50.1576 14.6573V15.7801C50.1576 15.8487 50.1576 15.8616 50.0752 15.8616H50.0449C49.9711 15.8616 49.9624 15.8616 49.9624 15.7801V14.6573Z" fill="#009EDB"/>
<path d="M50.0755 15.8571H50.0452C49.9714 15.8571 49.9584 15.8571 49.9584 15.7714V14.6571C49.9584 14.5928 49.9584 14.5714 50.0452 14.5714H50.0755C50.1406 14.5714 50.1623 14.5714 50.1623 14.6571V15.7799C50.1623 15.8571 50.1406 15.8571 50.0755 15.8571ZM50.0452 14.5714C49.9758 14.5714 49.9628 14.5714 49.9628 14.6485V15.7714C49.9628 15.8399 49.9628 15.8485 50.0452 15.8485H50.0755C50.1363 15.8485 50.1536 15.8485 50.1536 15.7714V14.6571C50.1536 14.5971 50.1536 14.5799 50.0755 14.5799L50.0452 14.5714ZM50.0452 14.2928C50.0107 14.2928 49.9776 14.2792 49.9532 14.2551C49.9287 14.231 49.915 14.1983 49.915 14.1642C49.915 14.1301 49.9287 14.0974 49.9532 14.0733C49.9776 14.0492 50.0107 14.0356 50.0452 14.0356C50.0797 14.0356 50.1128 14.0492 50.1372 14.0733C50.1616 14.0974 50.1753 14.1301 50.1753 14.1642C50.1753 14.1983 50.1616 14.231 50.1372 14.2551C50.1128 14.2792 50.0797 14.2928 50.0452 14.2928ZM50.0452 14.0399C50.0287 14.0399 50.0123 14.0431 49.997 14.0494C49.9818 14.0556 49.9679 14.0648 49.9562 14.0763C49.9445 14.0879 49.9353 14.1016 49.929 14.1167C49.9226 14.1317 49.9194 14.1479 49.9194 14.1642C49.9194 14.1805 49.9226 14.1967 49.929 14.2118C49.9353 14.2269 49.9445 14.2406 49.9562 14.2521C49.9679 14.2636 49.9818 14.2728 49.997 14.279C50.0123 14.2853 50.0287 14.2885 50.0452 14.2885C50.0785 14.2885 50.1105 14.2754 50.1341 14.2521C50.1577 14.2288 50.171 14.1972 50.171 14.1642C50.171 14.1313 50.1577 14.0996 50.1341 14.0763C50.1105 14.053 50.0785 14.0399 50.0452 14.0399Z" fill="#009EDB"/>
<path d="M51.4897 15.4758C51.4897 15.7672 51.3206 15.9044 50.9388 15.9044C50.6352 15.9044 50.4443 15.7844 50.4443 15.5144C50.4443 15.2444 50.6222 15.1329 50.9822 15.1329H51.2945V14.9572C51.2945 14.7815 51.1687 14.7215 50.9475 14.7215C50.8498 14.7209 50.7523 14.731 50.6569 14.7515C50.5918 14.7515 50.5701 14.7515 50.5701 14.6872V14.6658C50.5701 14.6058 50.5701 14.5887 50.6525 14.5758C50.7469 14.558 50.8428 14.5493 50.9388 14.5501C51.3076 14.5501 51.4897 14.6872 51.4897 14.9572V15.4758ZM51.2945 15.2701H50.9822C50.748 15.2701 50.6395 15.3344 50.6395 15.4972C50.6395 15.6601 50.7393 15.7201 50.9388 15.7201C51.1384 15.7201 51.2945 15.6644 51.2945 15.4672V15.2701ZM50.9822 14.4129C50.9345 14.4129 50.9302 14.4129 50.9215 14.3615C50.9128 14.3101 50.9605 14.2587 51.0386 14.1772C51.0571 14.162 51.0695 14.1407 51.0733 14.1172C51.0733 14.0701 51.0733 14.0487 51.0256 14.0487C50.9871 14.0396 50.947 14.0396 50.9085 14.0487C50.8781 14.0487 50.8564 14.0487 50.8391 14.0229V14.0015C50.8391 13.9629 50.8391 13.9458 50.8781 13.9329C50.9273 13.9118 50.9806 13.9016 51.0343 13.9029C51.0601 13.9008 51.086 13.9044 51.1102 13.9135C51.1344 13.9225 51.1563 13.9368 51.1742 13.9553C51.1921 13.9738 51.2055 13.996 51.2136 14.0203C51.2217 14.0447 51.2241 14.0704 51.2208 14.0958C51.2208 14.2072 51.0646 14.2544 51.0603 14.3401C51.0585 14.3531 51.0525 14.3652 51.0431 14.3745C51.0337 14.3838 51.0214 14.3898 51.0082 14.3915L50.9822 14.4129Z" fill="#009EDB"/>
<path d="M50.9383 15.8915C50.613 15.8915 50.4395 15.7544 50.4395 15.4972C50.4395 15.2401 50.6043 15.1115 50.9817 15.1115H51.2897V14.9572C51.2897 14.7944 51.1855 14.7258 50.947 14.7258C50.8495 14.7245 50.7521 14.7331 50.6563 14.7515C50.6216 14.7515 50.6 14.7515 50.5869 14.7515C50.5739 14.7515 50.5869 14.7215 50.5869 14.6915V14.6701C50.5869 14.6101 50.5869 14.593 50.6694 14.5758C50.7636 14.5576 50.8596 14.5489 50.9556 14.5501C51.3244 14.5501 51.5109 14.6915 51.5109 14.9787V15.4972C51.4935 15.763 51.32 15.8915 50.9383 15.8915ZM50.9817 15.1201C50.6086 15.1201 50.4438 15.2358 50.4438 15.4972C50.4438 15.7587 50.613 15.883 50.9383 15.883C51.0894 15.8987 51.2416 15.8656 51.3721 15.7887C51.4191 15.7517 51.4561 15.7038 51.4796 15.6491C51.5031 15.5945 51.5123 15.5349 51.5065 15.4758V14.9572C51.51 14.8992 51.4992 14.8412 51.475 14.7882C51.4508 14.7353 51.414 14.6888 51.3677 14.653C51.2437 14.5795 51.1 14.5451 50.9556 14.5544C50.8596 14.5532 50.7636 14.5618 50.6694 14.5801C50.6043 14.5801 50.5913 14.6058 50.5913 14.6658V14.6872C50.5913 14.7172 50.5913 14.7344 50.5913 14.743C50.5913 14.7515 50.6216 14.743 50.6563 14.743C50.7518 14.7227 50.8493 14.7126 50.947 14.713C51.1899 14.713 51.294 14.7858 51.294 14.953V15.1158L50.9817 15.1201ZM50.9383 15.7201C50.7344 15.7201 50.639 15.6472 50.639 15.4972C50.639 15.3472 50.7431 15.2658 50.9817 15.2658H51.294V15.4672C51.294 15.6772 51.1595 15.7201 50.9383 15.7201ZM50.9817 15.2915C50.7431 15.2915 50.6433 15.3558 50.6433 15.5144C50.6433 15.673 50.7388 15.733 50.9383 15.733C51.1378 15.733 51.2897 15.6644 51.2897 15.4844V15.2915H50.9817ZM50.9817 14.4344C50.9296 14.4344 50.9253 14.4344 50.9166 14.383C50.9079 14.3315 50.9426 14.2887 50.999 14.2287L51.0381 14.1901C51.0466 14.1833 51.0537 14.1748 51.0589 14.1653C51.0642 14.1557 51.0674 14.1452 51.0684 14.1344C51.0684 14.0872 51.0684 14.0701 51.0251 14.0658C50.9903 14.0668 50.9561 14.0756 50.9253 14.0915C50.8906 14.0915 50.8689 14.0915 50.8472 14.0615V14.0401C50.8472 13.9972 50.8472 13.9844 50.8862 13.9715C50.9355 13.9504 50.9888 13.9402 51.0424 13.9415C51.0929 13.9401 51.1423 13.9568 51.1812 13.9887C51.1988 14.0084 51.2121 14.0316 51.2203 14.0566C51.2285 14.0817 51.2315 14.1082 51.2289 14.1344C51.225 14.1631 51.2153 14.1908 51.2004 14.2159C51.1855 14.2409 51.1657 14.2627 51.1422 14.2801C51.1061 14.3029 51.0799 14.338 51.0684 14.3787C51.0674 14.392 51.0616 14.4045 51.0521 14.4139C51.0425 14.4234 51.0299 14.4291 51.0164 14.4301L50.9817 14.4344ZM51.012 14.0615C51.0381 14.0615 51.0641 14.0615 51.0641 14.1344C51.0602 14.1579 51.0479 14.1792 51.0294 14.1944L50.9904 14.233C50.934 14.2887 50.9036 14.3187 50.9079 14.3787C50.9123 14.4387 50.9079 14.4258 50.9687 14.4258C50.9807 14.4241 50.9918 14.4186 51.0004 14.4101C51.009 14.4016 51.0146 14.3906 51.0164 14.3787C51.0276 14.3367 51.0538 14.3002 51.0901 14.2758C51.1145 14.2615 51.1356 14.2422 51.152 14.2193C51.1685 14.1965 51.1799 14.1704 51.1855 14.143C51.1877 14.1174 51.1846 14.0917 51.1764 14.0674C51.1682 14.0431 51.1551 14.0207 51.1378 14.0015C51.1011 13.9688 51.0527 13.9519 51.0034 13.9544C50.9497 13.953 50.8964 13.9633 50.8472 13.9844C50.8168 13.9844 50.7995 14.0101 50.8125 14.0487C50.8125 14.0872 50.8515 14.0872 50.8819 14.0787C50.9227 14.0606 50.9679 14.0546 51.012 14.0615Z" fill="#009EDB"/>
<path d="M51.971 15.7798C51.971 15.8484 51.971 15.8612 51.8843 15.8612H51.8539C51.7888 15.8612 51.7715 15.8612 51.7715 15.7798V15.0384C51.7715 14.7127 51.958 14.5498 52.3224 14.5498C52.6868 14.5498 52.8733 14.7212 52.8733 15.0384V15.7798C52.8733 15.8484 52.8733 15.8612 52.7865 15.8612H52.7562C52.6824 15.8612 52.6694 15.8612 52.6694 15.7798V15.0384C52.6694 14.8284 52.5913 14.7341 52.3224 14.7341C52.0534 14.7341 51.971 14.8327 51.971 15.0384V15.7798Z" fill="#009EDB"/>
<path d="M52.7862 15.857H52.7559C52.6821 15.857 52.6691 15.857 52.6691 15.7713V15.0384C52.6691 14.8198 52.5737 14.7384 52.3221 14.7384C52.0705 14.7384 51.9707 14.8198 51.9707 15.0384V15.7798C51.9707 15.8484 51.9707 15.8655 51.884 15.8655H51.8536C51.7886 15.8655 51.7669 15.8655 51.7669 15.7798V15.0384C51.7669 14.7127 51.9534 14.5455 52.3221 14.5455C52.3994 14.5377 52.4775 14.545 52.552 14.5671C52.6264 14.5891 52.6957 14.6255 52.7559 14.6741C52.8028 14.722 52.8388 14.7793 52.8612 14.8422C52.8837 14.9051 52.8922 14.972 52.886 15.0384V15.7798C52.873 15.857 52.86 15.857 52.7862 15.857ZM52.3221 14.7213C52.578 14.7213 52.6735 14.807 52.6735 15.0298V15.7713C52.6735 15.8398 52.6735 15.8484 52.7559 15.8484H52.7862C52.8556 15.8484 52.8687 15.8484 52.8687 15.7713V15.0384C52.8739 14.9731 52.8655 14.9074 52.8438 14.8454C52.8222 14.7835 52.7878 14.7266 52.7429 14.6784C52.6824 14.6305 52.6129 14.5949 52.5385 14.5736C52.4641 14.5523 52.3861 14.5457 52.3091 14.5541C52.1542 14.5368 51.9986 14.5798 51.8753 14.6741C51.827 14.7214 51.7896 14.7784 51.7657 14.8413C51.7417 14.9042 51.7318 14.9714 51.7365 15.0384V15.7798C51.7365 15.8484 51.7582 15.857 51.8189 15.857H51.8493C51.9187 15.857 51.9317 15.857 51.9317 15.7798V15.0384C51.9664 14.8155 52.0532 14.7298 52.3221 14.7298V14.7213Z" fill="#009EDB"/>
<path d="M53.9102 14.1428C53.9102 14.07 53.9102 14.0571 53.9969 14.0571H54.0273C54.0967 14.0571 54.1097 14.0571 54.1097 14.1428V14.7471C54.1597 14.6824 54.2262 14.6321 54.3025 14.6012C54.3787 14.5703 54.4619 14.56 54.5435 14.5714C54.8645 14.5714 55.0293 14.7214 55.0293 15.03V15.8014C55.0293 15.87 55.0293 15.8828 54.9469 15.8828H54.9122C54.8428 15.8828 54.8298 15.8828 54.8298 15.8014V15.03C54.8298 14.8243 54.7343 14.7343 54.4914 14.7343C54.2485 14.7343 54.127 14.8328 54.127 15.0728V15.78C54.127 15.8486 54.127 15.8614 54.0446 15.8614H54.0143C53.9449 15.8614 53.9275 15.8614 53.9275 15.78L53.9102 14.1428Z" fill="#009EDB"/>
<path d="M54.9295 15.857H54.8948C54.8254 15.857 54.8081 15.857 54.8081 15.7713V15.0299C54.8081 14.8199 54.7126 14.7384 54.4741 14.7384C54.2355 14.7384 54.114 14.837 54.114 15.0727V15.7799C54.114 15.8484 54.114 15.8656 54.0273 15.8656H53.9969C53.9318 15.8656 53.9102 15.8656 53.9102 15.7799V14.1427C53.9102 14.0656 53.9102 14.0527 53.9969 14.0527H54.0273C54.0967 14.0527 54.114 14.0527 54.114 14.1427V14.7384C54.1648 14.6749 54.2316 14.6256 54.3077 14.5955C54.3839 14.5654 54.4666 14.5556 54.5478 14.567C54.8731 14.567 55.038 14.7213 55.038 15.0299V15.8013C55.0163 15.857 54.9989 15.857 54.9295 15.857ZM54.4958 14.7213C54.7387 14.7213 54.8384 14.8113 54.8384 15.0213V15.7713C54.8384 15.8399 54.8384 15.8484 54.9165 15.8484H54.9512C55.0206 15.8484 55.0293 15.8484 55.0293 15.7713V14.9999C55.0293 14.6956 54.8688 14.5456 54.5478 14.5456C54.4662 14.5342 54.383 14.5445 54.3068 14.5754C54.2306 14.6062 54.164 14.6566 54.114 14.7213V14.1427C54.114 14.0742 54.114 14.0613 54.036 14.0613H54.0056C53.9405 14.0613 53.9232 14.0613 53.9232 14.1427V15.8013C53.9232 15.8699 53.9232 15.8784 54.0056 15.8784H54.036C54.101 15.8784 54.114 15.8784 54.114 15.8013V15.0727C54.1054 14.8327 54.2225 14.7299 54.4741 14.7299L54.4958 14.7213Z" fill="#009EDB"/>
<path d="M55.2939 15.3384V15.0984C55.2939 14.7341 55.4848 14.5498 55.8752 14.5498C55.9831 14.5341 56.0933 14.5531 56.1894 14.604C56.2855 14.655 56.3624 14.7351 56.4087 14.8327C56.4478 14.8327 56.4868 14.7641 56.4868 14.627C56.4868 14.5884 56.4868 14.5755 56.5476 14.5755H56.5909C56.6387 14.5755 56.6473 14.5755 56.6473 14.627C56.6473 14.837 56.5606 14.9398 56.4391 14.9741C56.4437 15.0154 56.4437 15.0571 56.4391 15.0984V15.3384C56.4391 15.707 56.2483 15.887 55.8665 15.887C55.4848 15.887 55.2939 15.6984 55.2939 15.3384ZM56.2526 15.0984C56.2526 14.8455 56.1615 14.7341 55.8752 14.7341C55.5889 14.7341 55.4891 14.8455 55.4891 15.0984V15.3384C55.4891 15.5912 55.5846 15.7027 55.8752 15.7027C56.1658 15.7027 56.2526 15.5912 56.2526 15.3384V15.0984Z" fill="#009EDB"/>
<path d="M55.8749 15.8913C55.4758 15.8913 55.2893 15.7156 55.2893 15.3384V15.0984C55.2824 15.0208 55.292 14.9426 55.3174 14.8688C55.3427 14.795 55.3834 14.7273 55.4368 14.6698C55.5583 14.5711 55.7135 14.522 55.8705 14.5327C56.1568 14.5327 56.326 14.6227 56.4041 14.8156C56.4561 14.7941 56.4778 14.7256 56.4778 14.6141C56.4778 14.5713 56.4778 14.5584 56.5429 14.5584H56.5863C56.634 14.5584 56.647 14.5584 56.647 14.6141C56.647 14.8027 56.5776 14.9227 56.4388 14.9656C56.4411 15.0055 56.4411 15.0456 56.4388 15.0856V15.3256C56.4502 15.4017 56.4436 15.4794 56.4194 15.5526C56.3952 15.6258 56.3542 15.6924 56.2995 15.7473C56.2449 15.8021 56.1781 15.8437 56.1044 15.8687C56.0307 15.8937 55.9521 15.9014 55.8749 15.8913ZM55.8749 14.5541C55.7183 14.5409 55.5626 14.5885 55.4411 14.687C55.3876 14.7441 55.3471 14.812 55.3224 14.8859C55.2977 14.9599 55.2894 15.0382 55.2979 15.1156V15.3556C55.2979 15.7284 55.4801 15.8998 55.8749 15.8998C56.0314 15.9126 56.1869 15.865 56.3086 15.767C56.3621 15.7098 56.4026 15.642 56.4273 15.568C56.452 15.4941 56.4603 15.4158 56.4518 15.3384V15.0984C56.4541 15.057 56.4541 15.0155 56.4518 14.9741C56.5906 14.9313 56.6557 14.8156 56.6557 14.627C56.6557 14.5884 56.6557 14.5798 56.6036 14.5798H56.5602C56.5169 14.5798 56.5038 14.5798 56.5038 14.627C56.5038 14.7427 56.4778 14.8113 56.4214 14.837C56.326 14.6441 56.1612 14.5713 55.8749 14.5713V14.5541ZM55.8749 15.707C55.5972 15.707 55.4888 15.6041 55.4888 15.3384V15.0984C55.4888 14.8327 55.5929 14.7298 55.8749 14.7298C56.1568 14.7298 56.2523 14.8327 56.2523 15.0984V15.3384C56.2523 15.6084 56.1525 15.707 55.8749 15.707ZM55.8749 14.7384C55.5972 14.7384 55.4931 14.8327 55.4931 15.0984V15.3384C55.4931 15.5998 55.6016 15.6984 55.8749 15.6984C56.1481 15.6984 56.2479 15.6041 56.2479 15.3384V15.0984C56.2479 14.8327 56.1481 14.7384 55.8749 14.7384Z" fill="#009EDB"/>
<path d="M56.9287 15.7798C56.9287 15.8484 56.9287 15.8612 56.842 15.8612H56.8246C56.7595 15.8612 56.7422 15.8612 56.7422 15.7798V15.0384C56.7422 14.7127 56.9244 14.5498 57.2931 14.5498C57.6618 14.5498 57.844 14.7212 57.844 15.0384V15.7798C57.844 15.8484 57.844 15.8612 57.7572 15.8612H57.7269C57.6531 15.8612 57.6401 15.8612 57.6401 15.7798V15.0384C57.6401 14.8284 57.562 14.7341 57.2931 14.7341C57.0241 14.7341 56.9417 14.8327 56.9417 15.0384L56.9287 15.7798Z" fill="#009EDB"/>
<path d="M57.7442 15.857H57.7139C57.6401 15.857 57.6271 15.857 57.6271 15.7713V15.0384C57.6271 14.8198 57.5317 14.7384 57.2801 14.7384C57.0285 14.7384 56.9287 14.8198 56.9287 15.0384V15.7798C56.9287 15.8484 56.9287 15.8655 56.842 15.8655H56.8246C56.7596 15.8655 56.7379 15.8655 56.7379 15.7798V15.0384C56.7379 14.7127 56.9244 14.5455 57.2931 14.5455C57.3704 14.5377 57.4486 14.545 57.523 14.5671C57.5974 14.5891 57.6667 14.6255 57.7269 14.6741C57.7739 14.722 57.8098 14.7793 57.8323 14.8422C57.8547 14.9051 57.8632 14.972 57.857 15.0384V15.7798C57.831 15.857 57.818 15.857 57.7442 15.857ZM57.2801 14.7213C57.536 14.7213 57.6315 14.807 57.6315 15.0298V15.7713C57.6315 15.8398 57.6315 15.8484 57.7139 15.8484H57.7442C57.8136 15.8484 57.8267 15.8484 57.8267 15.7713V15.0384C57.8319 14.9731 57.8235 14.9074 57.8018 14.8454C57.7802 14.7835 57.7458 14.7266 57.7009 14.6784C57.6404 14.6305 57.5709 14.5949 57.4965 14.5736C57.4221 14.5523 57.3441 14.5457 57.2671 14.5541C57.1122 14.5368 56.9566 14.5798 56.8333 14.6741C56.785 14.7214 56.7476 14.7784 56.7237 14.8413C56.6997 14.9042 56.6898 14.9714 56.6945 15.0384V15.7798C56.6945 15.8484 56.7162 15.857 56.7769 15.857H56.8246C56.894 15.857 56.9071 15.857 56.9071 15.7798V15.0384C56.9244 14.8155 57.0242 14.7298 57.2801 14.7298V14.7213Z" fill="#009EDB"/>
</g>
<defs>
<clipPath id="clip0_10_1329">
<rect width="60" height="18" fill="white"/>
</clipPath>
</defs>
</svg>
